<svg xmlns="http://www.w3.org/2000/svg" xmlns:xlink="http://www.w3.org/1999/xlink" width="378.2" height="196" viewBox="0 0 378.2 196"><defs><clipPath id="b"><rect width="378.2" height="196"/></clipPath></defs><g id="a" clip-path="url(#b)"><path d="M75.11,159.776s92.724-41.409,163.592-12.1S366.6,231.825,366.6,231.825,324.277,209.7,277.639,202s-78.368-2.191-107.546-12.239-35.665-19.1-62.8-13.118A341.147,341.147,0,0,1,54.92,183.7Z" transform="translate(-23 -114)" fill="#67977b"/><path d="M355.088,236.486s-42.029-7.209-92.656.957-101.25,16.326-125.658.735-58.62-48.488-65.592-52.94,23.942-23.962,48.418-18.35,47.555,25.652,82.614,28.409,76.149,5.678,103.578,14.611,61.522,20.891,68.888,30.5S355.088,236.486,355.088,236.486Z" transform="translate(-23 -114)" fill="#24704c"/><path d="M380.449,243.088s-9.491-18.126-33.259-35.357-54.172-33.991-79.123-42.97-48.572-16.5-73.822-18.924-44.891-3.2-75.475,4.155c-25.131,6.041-34.319,15.306-40.543,19.924A71.474,71.474,0,0,0,66.732,181.19s37.726-27.046,75.544-29.887c39.231-2.951,58.225,1.391,69.884,3.317s48.407,11.23,77.358,25.352c27.78,13.548,35.311,19.188,50.648,29.746C354.079,219.288,380.449,243.088,380.449,243.088Z" transform="translate(-23 -114)" fill="#00522b"/><path d="M49.151,192.912s14.946-3.548,51.868,23.513c35.709,23.833,66.6,23.516,83.147,23.857s62.1-5.952,84.793-9.455c21.928-3.387,41.648-4.689,62.542-2.8,19.811,1.792,42.152,13.427,42.152,13.427s-27.509-8.166-48.376-8.809c-20.694-.637-37.179,1.2-75.662,6.7s-54.4,8-83.332,5.884a141.173,141.173,0,0,1-67.548-23.3c-14.682-9.994-25.721-19.294-34.546-23.088S49.151,192.912,49.151,192.912Z" transform="translate(-23 -114)" fill="#00522b"/><g transform="translate(-23 -114)"><rect width="1.113" height="195.618" transform="translate(108.719 114.249)" fill="#d90016"/></g><g transform="translate(-23 -114)"><rect width="378.615" height="1.113" transform="translate(22.825 235.421)" fill="#d90016"/></g><path d="M15.99-18.46a.706.706,0,0,1,.559.221.892.892,0,0,1,.195.611V-.7a.867.867,0,0,1-.208.6.726.726,0,0,1-.572.234.894.894,0,0,1-.7-.39L3.874-15.626V-.7a.867.867,0,0,1-.208.6A.7.7,0,0,1,3.12.13a.7.7,0,0,1-.572-.221A.934.934,0,0,1,2.366-.7V-17.628a.836.836,0,0,1,.221-.6A.8.8,0,0,1,3.2-18.46a.784.784,0,0,1,.676.39L15.236-2.73v-14.9a.867.867,0,0,1,.208-.6A.7.7,0,0,1,15.99-18.46ZM28.938.208A8.146,8.146,0,0,1,24.6-.923a7.333,7.333,0,0,1-2.834-3.25,11.68,11.68,0,0,1-.988-4.979,11.747,11.747,0,0,1,.988-5,7.359,7.359,0,0,1,2.821-3.25,8.129,8.129,0,0,1,4.355-1.131,8.2,8.2,0,0,1,4.368,1.131A7.345,7.345,0,0,1,36.14-14.17a11.659,11.659,0,0,1,.988,4.992,11.747,11.747,0,0,1-.988,5,7.333,7.333,0,0,1-2.834,3.25A8.2,8.2,0,0,1,28.938.208Zm0-1.43a5.889,5.889,0,0,0,4.81-2.08,8.994,8.994,0,0,0,1.716-5.876,8.988,8.988,0,0,0-1.7-5.863,5.9,5.9,0,0,0-4.823-2.067,5.851,5.851,0,0,0-4.8,2.08,9,9,0,0,0-1.7,5.85,9.052,9.052,0,0,0,1.7,5.863A5.835,5.835,0,0,0,28.938-1.222ZM48.152.208a7.117,7.117,0,0,1-5.317-1.846,7.464,7.464,0,0,1-1.807-5.434V-17.628a.826.826,0,0,1,.221-.611.791.791,0,0,1,.585-.221.791.791,0,0,1,.585.221.826.826,0,0,1,.221.611V-6.89q0,5.668,5.512,5.668a5.5,5.5,0,0,0,4.121-1.43A5.848,5.848,0,0,0,53.664-6.89V-17.628a.836.836,0,0,1,.221-.6.767.767,0,0,1,.585-.234.748.748,0,0,1,.572.221.856.856,0,0,1,.208.611V-7.072a7.464,7.464,0,0,1-1.807,5.434A7.08,7.08,0,0,1,48.152.208ZM73.4-18.044a.671.671,0,0,1,.676-.442.878.878,0,0,1,.559.2.592.592,0,0,1,.247.481.692.692,0,0,1-.078.312L67.236-.442a.862.862,0,0,1-.351.416.98.98,0,0,1-.533.156,1,1,0,0,1-.507-.143.917.917,0,0,1-.377-.429L57.928-17.5a.647.647,0,0,1-.078-.286.616.616,0,0,1,.247-.507.878.878,0,0,1,.559-.2.671.671,0,0,1,.676.442L66.378-2.106ZM78.416,0a.854.854,0,0,1-.611-.234.758.758,0,0,1-.247-.572V-17.524a.758.758,0,0,1,.247-.572.854.854,0,0,1,.611-.234H88.3a.75.75,0,0,1,.533.182.676.676,0,0,1,.195.52.643.643,0,0,1-.195.494.75.75,0,0,1-.533.182H79.144v6.942h8.632a.75.75,0,0,1,.533.182.676.676,0,0,1,.195.52.676.676,0,0,1-.195.52.75.75,0,0,1-.533.182H79.144v7.228H88.3a.786.786,0,0,1,.533.169.635.635,0,0,1,.195.507.676.676,0,0,1-.195.52A.75.75,0,0,1,88.3,0Zm29.25-.858a.692.692,0,0,1,.078.312.6.6,0,0,1-.234.481.827.827,0,0,1-.546.195.717.717,0,0,1-.4-.13.83.83,0,0,1-.3-.364l-1.976-4.524H94.2l-2,4.524a.766.766,0,0,1-.728.494.778.778,0,0,1-.533-.195.644.644,0,0,1-.221-.507.648.648,0,0,1,.052-.286l7.592-17.056a.855.855,0,0,1,.858-.572.98.98,0,0,1,.533.156.862.862,0,0,1,.351.416ZM94.8-6.292h8.866l-4.42-10.062Zm23.01,6.5a7.117,7.117,0,0,1-5.317-1.846,7.464,7.464,0,0,1-1.807-5.434V-17.628a.826.826,0,0,1,.221-.611.791.791,0,0,1,.585-.221.791.791,0,0,1,.585.221.826.826,0,0,1,.221.611V-6.89q0,5.668,5.512,5.668a5.5,5.5,0,0,0,4.121-1.43,5.848,5.848,0,0,0,1.391-4.238V-17.628a.836.836,0,0,1,.221-.6.767.767,0,0,1,.585-.234.747.747,0,0,1,.572.221.856.856,0,0,1,.208.611V-7.072A7.464,7.464,0,0,1,123.1-1.638,7.08,7.08,0,0,1,117.806.208ZM134.836.13a.726.726,0,0,1-.572-.234.866.866,0,0,1-.208-.6V-16.926H128.05a.75.75,0,0,1-.533-.182.676.676,0,0,1-.195-.52.676.676,0,0,1,.195-.52.75.75,0,0,1,.533-.182h13.572a.731.731,0,0,1,.52.195.663.663,0,0,1,.208.507.663.663,0,0,1-.208.507.731.731,0,0,1-.52.195h-5.98V-.7a.836.836,0,0,1-.221.6A.767.767,0,0,1,134.836.13ZM145.73,0a.854.854,0,0,1-.611-.234.758.758,0,0,1-.247-.572V-17.524a.758.758,0,0,1,.247-.572.854.854,0,0,1,.611-.234h9.88a.75.75,0,0,1,.533.182.676.676,0,0,1,.2.52.643.643,0,0,1-.2.494.75.75,0,0,1-.533.182h-9.152v6.942h8.632a.75.75,0,0,1,.533.182.677.677,0,0,1,.195.52.677.677,0,0,1-.195.52.75.75,0,0,1-.533.182h-8.632v7.228h9.152a.786.786,0,0,1,.533.169.635.635,0,0,1,.2.507.676.676,0,0,1-.2.52A.75.75,0,0,1,155.61,0Zm5.46-19.864a.484.484,0,0,1-.312.1.47.47,0,0,1-.325-.13.407.407,0,0,1-.143-.312.472.472,0,0,1,.156-.338l2.678-2.99a1.063,1.063,0,0,1,.78-.39.8.8,0,0,1,.572.221.736.736,0,0,1,.234.559,1.068,1.068,0,0,1-.494.806ZM165.308.208A11.338,11.338,0,0,1,161.6-.4a7,7,0,0,1-2.795-1.651.939.939,0,0,1-.338-.754.759.759,0,0,1,.169-.494.484.484,0,0,1,.377-.208,1.034,1.034,0,0,1,.6.26,8.648,8.648,0,0,0,5.694,2.028,6.07,6.07,0,0,0,3.653-.949,3.146,3.146,0,0,0,1.287-2.691,2.215,2.215,0,0,0-.624-1.638,4.276,4.276,0,0,0-1.586-.975,21.817,21.817,0,0,0-2.574-.715,25.8,25.8,0,0,1-3.445-.962,5.638,5.638,0,0,1-2.223-1.495,3.848,3.848,0,0,1-.91-2.691,4.657,4.657,0,0,1,.819-2.717,5.312,5.312,0,0,1,2.3-1.833,8.408,8.408,0,0,1,3.406-.65,9.689,9.689,0,0,1,3.38.585,6.815,6.815,0,0,1,2.626,1.677,1.044,1.044,0,0,1,.338.754.759.759,0,0,1-.169.494.484.484,0,0,1-.377.208,1.034,1.034,0,0,1-.6-.26,9.884,9.884,0,0,0-2.535-1.586,7.306,7.306,0,0,0-2.665-.442,5.853,5.853,0,0,0-3.614.988,3.265,3.265,0,0,0-1.3,2.756,2.553,2.553,0,0,0,.572,1.729,3.979,3.979,0,0,0,1.495,1.053,16.615,16.615,0,0,0,2.379.754l.676.156q2.106.52,3.328.962a5.112,5.112,0,0,1,2.067,1.365,3.535,3.535,0,0,1,.845,2.483,4.455,4.455,0,0,1-.819,2.639,5.291,5.291,0,0,1-2.314,1.794A8.653,8.653,0,0,1,165.308.208Z" transform="translate(91 96)" fill="#fff"/></g></svg>