<svg xmlns="http://www.w3.org/2000/svg" xmlns:xlink="http://www.w3.org/1999/xlink" width="378.2" height="196" viewBox="0 0 378.2 196"><defs><clipPath id="b"><rect width="378.2" height="196"/></clipPath></defs><g id="a" clip-path="url(#b)"><path d="M75.11,159.776s92.724-41.409,163.592-12.1S366.6,231.825,366.6,231.825,324.277,209.7,277.639,202s-78.368-2.191-107.546-12.239-35.665-19.1-62.8-13.118A341.147,341.147,0,0,1,54.92,183.7Z" transform="translate(-23 -114)" fill="#67977b"/><path d="M355.088,236.486s-42.029-7.209-92.656.957-101.25,16.326-125.658.735-58.62-48.488-65.592-52.94,23.942-23.962,48.418-18.35,47.555,25.652,82.614,28.409,76.149,5.678,103.578,14.611,61.522,20.891,68.888,30.5S355.088,236.486,355.088,236.486Z" transform="translate(-23 -114)" fill="#24704c"/><path d="M380.449,243.088s-9.491-18.126-33.259-35.357-54.172-33.991-79.123-42.97-48.572-16.5-73.822-18.924-44.891-3.2-75.475,4.155c-25.131,6.041-34.319,15.306-40.543,19.924A71.474,71.474,0,0,0,66.732,181.19s37.726-27.046,75.544-29.887c39.231-2.951,58.225,1.391,69.884,3.317s48.407,11.23,77.358,25.352c27.78,13.548,35.311,19.188,50.648,29.746C354.079,219.288,380.449,243.088,380.449,243.088Z" transform="translate(-23 -114)" fill="#00522b"/><path d="M49.151,192.912s14.946-3.548,51.868,23.513c35.709,23.833,66.6,23.516,83.147,23.857s62.1-5.952,84.793-9.455c21.928-3.387,41.648-4.689,62.542-2.8,19.811,1.792,42.152,13.427,42.152,13.427s-27.509-8.166-48.376-8.809c-20.694-.637-37.179,1.2-75.662,6.7s-54.4,8-83.332,5.884a141.173,141.173,0,0,1-67.548-23.3c-14.682-9.994-25.721-19.294-34.546-23.088S49.151,192.912,49.151,192.912Z" transform="translate(-23 -114)" fill="#00522b"/><g transform="translate(-23 -114)"><rect width="1.113" height="195.618" transform="translate(108.719 114.249)" fill="#d90016"/></g><g transform="translate(-23 -114)"><rect width="378.615" height="1.113" transform="translate(22.825 235.421)" fill="#d90016"/></g><path d="M-46.436.13A.767.767,0,0,1-47.021-.1a.836.836,0,0,1-.221-.6V-17.524A.758.758,0,0,1-47-18.1a.854.854,0,0,1,.611-.234h9.62a.75.75,0,0,1,.533.182.676.676,0,0,1,.195.52.635.635,0,0,1-.195.507.786.786,0,0,1-.533.169H-45.63v6.942h8.346a.75.75,0,0,1,.533.182.676.676,0,0,1,.195.52.676.676,0,0,1-.195.52.75.75,0,0,1-.533.182H-45.63V-.7a.856.856,0,0,1-.208.611A.782.782,0,0,1-46.436.13ZM-25.9.208A8.146,8.146,0,0,1-30.238-.923a7.333,7.333,0,0,1-2.834-3.25,11.68,11.68,0,0,1-.988-4.979,11.747,11.747,0,0,1,.988-5,7.359,7.359,0,0,1,2.821-3.25A8.129,8.129,0,0,1-25.9-18.538a8.2,8.2,0,0,1,4.368,1.131,7.345,7.345,0,0,1,2.834,3.237,11.659,11.659,0,0,1,.988,4.992,11.747,11.747,0,0,1-.988,5,7.333,7.333,0,0,1-2.834,3.25A8.2,8.2,0,0,1-25.9.208Zm0-1.43a5.889,5.889,0,0,0,4.81-2.08A8.994,8.994,0,0,0-19.37-9.178a8.988,8.988,0,0,0-1.7-5.863A5.9,5.9,0,0,0-25.9-17.108a5.851,5.851,0,0,0-4.8,2.08,9,9,0,0,0-1.7,5.85,9.052,9.052,0,0,0,1.7,5.863A5.835,5.835,0,0,0-25.9-1.222ZM-12.844,0a.879.879,0,0,1-.585-.208.652.652,0,0,1-.247-.52v-16.9a.836.836,0,0,1,.221-.6.767.767,0,0,1,.585-.234.782.782,0,0,1,.6.221.856.856,0,0,1,.208.611V-1.4h8.892a.75.75,0,0,1,.533.182.676.676,0,0,1,.195.52.676.676,0,0,1-.195.52A.75.75,0,0,1-3.172,0ZM1.04,0A.854.854,0,0,1,.429-.234.758.758,0,0,1,.182-.806V-17.524A.758.758,0,0,1,.429-18.1a.854.854,0,0,1,.611-.234H6.084A9.118,9.118,0,0,1,12.8-15.964q2.379,2.366,2.379,6.786T12.8-2.379A9.089,9.089,0,0,1,6.084,0ZM6.006-1.4q7.488,0,7.488-7.774,0-7.748-7.488-7.748H1.794V-1.4ZM20.046,0a.854.854,0,0,1-.611-.234.758.758,0,0,1-.247-.572V-17.524a.758.758,0,0,1,.247-.572.854.854,0,0,1,.611-.234h9.88a.75.75,0,0,1,.533.182.676.676,0,0,1,.195.52.643.643,0,0,1-.195.494.75.75,0,0,1-.533.182H20.774v6.942h8.632a.75.75,0,0,1,.533.182.676.676,0,0,1,.195.52.676.676,0,0,1-.195.52.75.75,0,0,1-.533.182H20.774v7.228h9.152a.786.786,0,0,1,.533.169.635.635,0,0,1,.195.507.676.676,0,0,1-.195.52A.75.75,0,0,1,29.926,0Zm27.9-.962A.806.806,0,0,1,48.1-.52a.616.616,0,0,1-.221.481.744.744,0,0,1-.507.2.794.794,0,0,1-.7-.416L43.16-5.876a4.656,4.656,0,0,0-1.547-1.638,4.546,4.546,0,0,0-2.2-.442H35.854V-.7a.826.826,0,0,1-.221.611.791.791,0,0,1-.585.221.791.791,0,0,1-.585-.221A.826.826,0,0,1,34.242-.7V-17.524a.758.758,0,0,1,.247-.572.854.854,0,0,1,.611-.234h6.474a6.719,6.719,0,0,1,4.446,1.313,4.73,4.73,0,0,1,1.56,3.835,4.691,4.691,0,0,1-1.326,3.51A5.88,5.88,0,0,1,42.51-8.164a3.136,3.136,0,0,1,1.144.689A6.8,6.8,0,0,1,44.72-6.136ZM41.47-9.334q4.524,0,4.524-3.874a3.447,3.447,0,0,0-1.118-2.821,5.274,5.274,0,0,0-3.406-.923H35.828v7.618ZM-41.067,16.54a.8.8,0,0,1,.611.234.836.836,0,0,1,.221.6V34.3a.867.867,0,0,1-.208.6.726.726,0,0,1-.572.234.666.666,0,0,1-.546-.221.934.934,0,0,1-.182-.611V19.868L-47.9,31.776a.95.95,0,0,1-.858.6.95.95,0,0,1-.858-.6l-6.214-11.8V34.3a.934.934,0,0,1-.182.611.666.666,0,0,1-.546.221.739.739,0,0,1-.585-.221.892.892,0,0,1-.195-.611V17.372a.836.836,0,0,1,.221-.6.8.8,0,0,1,.611-.234q.468,0,.78.6l6.994,13.416,6.89-13.416Q-41.535,16.54-41.067,16.54ZM-34.645,35a.854.854,0,0,1-.611-.234.758.758,0,0,1-.247-.572V17.476a.758.758,0,0,1,.247-.572.854.854,0,0,1,.611-.234h9.88a.75.75,0,0,1,.533.182.676.676,0,0,1,.195.52.643.643,0,0,1-.195.494.75.75,0,0,1-.533.182h-9.152V24.99h8.632a.75.75,0,0,1,.533.182.676.676,0,0,1,.195.52.676.676,0,0,1-.195.52.75.75,0,0,1-.533.182h-8.632v7.228h9.152a.786.786,0,0,1,.533.169.635.635,0,0,1,.195.507.676.676,0,0,1-.195.52.75.75,0,0,1-.533.182Zm27.82-18.46a.706.706,0,0,1,.559.221.892.892,0,0,1,.195.611V34.3a.867.867,0,0,1-.208.6.726.726,0,0,1-.572.234.894.894,0,0,1-.7-.39L-18.941,19.374V34.3a.867.867,0,0,1-.208.6.7.7,0,0,1-.546.234.7.7,0,0,1-.572-.221.934.934,0,0,1-.182-.611V17.372a.836.836,0,0,1,.221-.6.8.8,0,0,1,.611-.234.784.784,0,0,1,.676.39L-7.579,32.27v-14.9a.867.867,0,0,1,.208-.6A.7.7,0,0,1-6.825,16.54ZM4.3,35.208A11.338,11.338,0,0,1,.6,34.6a7,7,0,0,1-2.8-1.651.939.939,0,0,1-.338-.754.759.759,0,0,1,.169-.494.484.484,0,0,1,.377-.208,1.034,1.034,0,0,1,.6.26A8.648,8.648,0,0,0,4.3,33.778a6.07,6.07,0,0,0,3.653-.949,3.146,3.146,0,0,0,1.287-2.691A2.215,2.215,0,0,0,8.619,28.5a4.276,4.276,0,0,0-1.586-.975,21.817,21.817,0,0,0-2.574-.715,25.8,25.8,0,0,1-3.445-.962,5.638,5.638,0,0,1-2.223-1.495,3.848,3.848,0,0,1-.91-2.691A4.657,4.657,0,0,1-1.3,18.945,5.312,5.312,0,0,1,1,17.112a8.408,8.408,0,0,1,3.406-.65,9.689,9.689,0,0,1,3.38.585,6.815,6.815,0,0,1,2.626,1.677,1.044,1.044,0,0,1,.338.754.759.759,0,0,1-.169.494.484.484,0,0,1-.377.208,1.034,1.034,0,0,1-.6-.26,9.884,9.884,0,0,0-2.535-1.586,7.306,7.306,0,0,0-2.665-.442,5.853,5.853,0,0,0-3.614.988,3.265,3.265,0,0,0-1.3,2.756,2.553,2.553,0,0,0,.572,1.729A3.979,3.979,0,0,0,1.56,24.418a16.614,16.614,0,0,0,2.379.754l.676.156q2.106.52,3.328.962a5.112,5.112,0,0,1,2.067,1.365,3.535,3.535,0,0,1,.845,2.483,4.455,4.455,0,0,1-.819,2.639,5.291,5.291,0,0,1-2.314,1.794A8.653,8.653,0,0,1,4.3,35.208Zm17.134,0a7.117,7.117,0,0,1-5.317-1.846,7.464,7.464,0,0,1-1.807-5.434V17.372a.826.826,0,0,1,.221-.611.885.885,0,0,1,1.17,0,.826.826,0,0,1,.221.611V28.11q0,5.668,5.512,5.668a5.5,5.5,0,0,0,4.121-1.43,5.848,5.848,0,0,0,1.391-4.238V17.372a.836.836,0,0,1,.221-.6.767.767,0,0,1,.585-.234.748.748,0,0,1,.572.221.856.856,0,0,1,.208.611V27.928a7.464,7.464,0,0,1-1.807,5.434A7.08,7.08,0,0,1,21.437,35.208ZM34.021,35a.854.854,0,0,1-.611-.234.758.758,0,0,1-.247-.572V17.476a.758.758,0,0,1,.247-.572.854.854,0,0,1,.611-.234H43.9a.75.75,0,0,1,.533.182.676.676,0,0,1,.195.52.643.643,0,0,1-.195.494.75.75,0,0,1-.533.182H34.749V24.99h8.632a.75.75,0,0,1,.533.182.791.791,0,0,1,0,1.04.75.75,0,0,1-.533.182H34.749v7.228H43.9a.786.786,0,0,1,.533.169.635.635,0,0,1,.195.507.676.676,0,0,1-.195.52A.75.75,0,0,1,43.9,35Zm15.028,0a.879.879,0,0,1-.585-.208.652.652,0,0,1-.247-.52v-16.9a.836.836,0,0,1,.221-.6.767.767,0,0,1,.585-.234.782.782,0,0,1,.6.221.856.856,0,0,1,.208.611V33.6h8.892a.75.75,0,0,1,.533.182.791.791,0,0,1,0,1.04.75.75,0,0,1-.533.182Z" transform="translate(168 71)" fill="#fff"/></g></svg>