<svg xmlns="http://www.w3.org/2000/svg" xmlns:xlink="http://www.w3.org/1999/xlink" width="378.2" height="196" viewBox="0 0 378.2 196"><defs><clipPath id="b"><rect width="378.2" height="196"/></clipPath></defs><g id="a" clip-path="url(#b)"><path d="M75.11,159.776s92.724-41.409,163.592-12.1S366.6,231.825,366.6,231.825,324.277,209.7,277.639,202s-78.368-2.191-107.546-12.239-35.665-19.1-62.8-13.118A341.147,341.147,0,0,1,54.92,183.7Z" transform="translate(-23 -114)" fill="#67977b"/><path d="M355.088,236.486s-42.029-7.209-92.656.957-101.25,16.326-125.658.735-58.62-48.488-65.592-52.94,23.942-23.962,48.418-18.35,47.555,25.652,82.614,28.409,76.149,5.678,103.578,14.611,61.522,20.891,68.888,30.5S355.088,236.486,355.088,236.486Z" transform="translate(-23 -114)" fill="#24704c"/><path d="M380.449,243.088s-9.491-18.126-33.259-35.357-54.172-33.991-79.123-42.97-48.572-16.5-73.822-18.924-44.891-3.2-75.475,4.155c-25.131,6.041-34.319,15.306-40.543,19.924A71.474,71.474,0,0,0,66.732,181.19s37.726-27.046,75.544-29.887c39.231-2.951,58.225,1.391,69.884,3.317s48.407,11.23,77.358,25.352c27.78,13.548,35.311,19.188,50.648,29.746C354.079,219.288,380.449,243.088,380.449,243.088Z" transform="translate(-23 -114)" fill="#00522b"/><path d="M49.151,192.912s14.946-3.548,51.868,23.513c35.709,23.833,66.6,23.516,83.147,23.857s62.1-5.952,84.793-9.455c21.928-3.387,41.648-4.689,62.542-2.8,19.811,1.792,42.152,13.427,42.152,13.427s-27.509-8.166-48.376-8.809c-20.694-.637-37.179,1.2-75.662,6.7s-54.4,8-83.332,5.884a141.173,141.173,0,0,1-67.548-23.3c-14.682-9.994-25.721-19.294-34.546-23.088S49.151,192.912,49.151,192.912Z" transform="translate(-23 -114)" fill="#00522b"/><g transform="translate(-23 -114)"><rect width="1.113" height="195.618" transform="translate(108.719 114.249)" fill="#d90016"/></g><g transform="translate(-23 -114)"><rect width="378.615" height="1.113" transform="translate(22.825 235.421)" fill="#d90016"/></g><path d="M15.99-18.46a.706.706,0,0,1,.559.221.892.892,0,0,1,.195.611V-.7a.867.867,0,0,1-.208.6.726.726,0,0,1-.572.234.894.894,0,0,1-.7-.39L3.874-15.626V-.7a.867.867,0,0,1-.208.6A.7.7,0,0,1,3.12.13a.7.7,0,0,1-.572-.221A.934.934,0,0,1,2.366-.7V-17.628a.836.836,0,0,1,.221-.6A.8.8,0,0,1,3.2-18.46a.784.784,0,0,1,.676.39L15.236-2.73v-14.9a.867.867,0,0,1,.208-.6A.7.7,0,0,1,15.99-18.46ZM22.282.13A.767.767,0,0,1,21.7-.1a.836.836,0,0,1-.221-.6V-17.628a.836.836,0,0,1,.221-.6.767.767,0,0,1,.585-.234.767.767,0,0,1,.585.234.836.836,0,0,1,.221.6V-.7a.836.836,0,0,1-.221.6A.767.767,0,0,1,22.282.13Zm6.4-.13a.854.854,0,0,1-.611-.234.758.758,0,0,1-.247-.572V-17.524a.758.758,0,0,1,.247-.572.854.854,0,0,1,.611-.234h9.88a.75.75,0,0,1,.533.182.676.676,0,0,1,.195.52.643.643,0,0,1-.195.494.75.75,0,0,1-.533.182H29.406v6.942h8.632a.75.75,0,0,1,.533.182.676.676,0,0,1,.195.52.676.676,0,0,1-.195.52.75.75,0,0,1-.533.182H29.406v7.228h9.152a.786.786,0,0,1,.533.169.635.635,0,0,1,.195.507.676.676,0,0,1-.195.52A.75.75,0,0,1,38.558,0Zm21.19.208a7.117,7.117,0,0,1-5.317-1.846,7.464,7.464,0,0,1-1.807-5.434V-17.628a.826.826,0,0,1,.221-.611.791.791,0,0,1,.585-.221.791.791,0,0,1,.585.221.826.826,0,0,1,.221.611V-6.89q0,5.668,5.512,5.668a5.5,5.5,0,0,0,4.121-1.43A5.848,5.848,0,0,0,55.38-6.89V-17.628a.836.836,0,0,1,.221-.6.767.767,0,0,1,.585-.234.748.748,0,0,1,.572.221.856.856,0,0,1,.208.611V-7.072a7.464,7.464,0,0,1-1.807,5.434A7.08,7.08,0,0,1,49.868.208Zm35.386-18.2a.674.674,0,0,1,.676-.494.845.845,0,0,1,.559.208.652.652,0,0,1,.247.52,1.563,1.563,0,0,1-.052.26L80.652-.442A.85.85,0,0,1,80.3,0a.98.98,0,0,1-.533.156A.876.876,0,0,1,79.274,0a.872.872,0,0,1-.338-.442L73.5-15.834,68.016-.442A.872.872,0,0,1,67.678,0a.917.917,0,0,1-.52.156A.876.876,0,0,1,66.664,0a.872.872,0,0,1-.338-.442L60.294-17.5a1.434,1.434,0,0,1-.052-.286.629.629,0,0,1,.234-.507.827.827,0,0,1,.546-.2.7.7,0,0,1,.416.13.868.868,0,0,1,.286.364L67.21-2.236l5.46-15.548A.9.9,0,0,1,73-18.252a.817.817,0,0,1,.481-.156.868.868,0,0,1,.52.169.939.939,0,0,1,.338.481L79.768-2.236ZM90.9.13A.767.767,0,0,1,90.311-.1a.836.836,0,0,1-.221-.6V-17.628a.836.836,0,0,1,.221-.6.767.767,0,0,1,.585-.234.767.767,0,0,1,.585.234.836.836,0,0,1,.221.6V-.7a.836.836,0,0,1-.221.6A.767.767,0,0,1,90.9.13ZM109.9-9.386a.686.686,0,0,1,.507.195.686.686,0,0,1,.2.507v6.89a.938.938,0,0,1-.6.936,11.034,11.034,0,0,1-2.587.78,16.636,16.636,0,0,1-3.081.286A9.163,9.163,0,0,1,99.723-.9a7.239,7.239,0,0,1-2.964-3.224,11.494,11.494,0,0,1-1.027-5.057,11.4,11.4,0,0,1,1.014-4.992,7.4,7.4,0,0,1,2.912-3.237,8.625,8.625,0,0,1,4.5-1.131,9.765,9.765,0,0,1,3.406.585,6.587,6.587,0,0,1,2.6,1.677,1.044,1.044,0,0,1,.338.754.8.8,0,0,1-.156.494.471.471,0,0,1-.39.208,1.125,1.125,0,0,1-.572-.26,9.251,9.251,0,0,0-2.548-1.586,7.544,7.544,0,0,0-2.678-.442,6.172,6.172,0,0,0-4.979,2.067,8.8,8.8,0,0,0-1.755,5.863A8.836,8.836,0,0,0,99.19-3.25,6.42,6.42,0,0,0,104.338-1.2a14.807,14.807,0,0,0,2.561-.221,10.438,10.438,0,0,0,2.249-.637v-5.98h-4.212a.789.789,0,0,1-.559-.182.643.643,0,0,1-.195-.494.643.643,0,0,1,.195-.494.789.789,0,0,1,.559-.182Zm19.292-9.074a.782.782,0,0,1,.6.221.856.856,0,0,1,.208.611V-.7a.856.856,0,0,1-.208.611.782.782,0,0,1-.6.221.726.726,0,0,1-.572-.234.866.866,0,0,1-.208-.6v-7.9h-11.7V-.7a.867.867,0,0,1-.208.6.726.726,0,0,1-.572.234.767.767,0,0,1-.585-.234.836.836,0,0,1-.221-.6V-17.628a.836.836,0,0,1,.221-.6.767.767,0,0,1,.585-.234.726.726,0,0,1,.572.234.867.867,0,0,1,.208.6v7.618h11.7v-7.618a.867.867,0,0,1,.208-.6A.726.726,0,0,1,129.194-18.46ZM135.59,0a.854.854,0,0,1-.611-.234.758.758,0,0,1-.247-.572V-17.524a.758.758,0,0,1,.247-.572.854.854,0,0,1,.611-.234h9.88a.75.75,0,0,1,.533.182.676.676,0,0,1,.2.52.643.643,0,0,1-.2.494.75.75,0,0,1-.533.182h-9.152v6.942h8.632a.75.75,0,0,1,.533.182.677.677,0,0,1,.195.52.677.677,0,0,1-.195.52.75.75,0,0,1-.533.182h-8.632v7.228h9.152a.786.786,0,0,1,.533.169.635.635,0,0,1,.2.507.676.676,0,0,1-.2.52A.75.75,0,0,1,145.47,0Zm15.054,0a.854.854,0,0,1-.611-.234.758.758,0,0,1-.247-.572V-17.524a.758.758,0,0,1,.247-.572.854.854,0,0,1,.611-.234h5.044a9.118,9.118,0,0,1,6.721,2.366q2.379,2.366,2.379,6.786t-2.379,6.8A9.089,9.089,0,0,1,155.688,0Zm4.966-1.4q7.488,0,7.488-7.774,0-7.748-7.488-7.748H151.4V-1.4ZM169.65,0a.854.854,0,0,1-.611-.234.758.758,0,0,1-.247-.572V-17.524a.758.758,0,0,1,.247-.572.854.854,0,0,1,.611-.234h9.88a.75.75,0,0,1,.533.182.676.676,0,0,1,.2.52.643.643,0,0,1-.2.494.75.75,0,0,1-.533.182h-9.152v6.942h8.632a.75.75,0,0,1,.533.182.677.677,0,0,1,.195.52.677.677,0,0,1-.195.52.75.75,0,0,1-.533.182h-8.632v7.228h9.152a.786.786,0,0,1,.533.169.635.635,0,0,1,.2.507.676.676,0,0,1-.2.52A.75.75,0,0,1,179.53,0Zm27.82-18.46a.706.706,0,0,1,.559.221.892.892,0,0,1,.2.611V-.7a.866.866,0,0,1-.208.6.726.726,0,0,1-.572.234.894.894,0,0,1-.7-.39L185.354-15.626V-.7a.867.867,0,0,1-.208.6A.7.7,0,0,1,184.6.13a.7.7,0,0,1-.572-.221.934.934,0,0,1-.182-.611V-17.628a.836.836,0,0,1,.221-.6.8.8,0,0,1,.611-.234.783.783,0,0,1,.676.39L196.716-2.73v-14.9a.867.867,0,0,1,.208-.6A.7.7,0,0,1,197.47-18.46Z" transform="translate(91 96)" fill="#fff"/></g></svg>