<svg xmlns="http://www.w3.org/2000/svg" 
  xmlns:xlink="http://www.w3.org/1999/xlink" width="425.2" height="425.2" viewBox="0 0 425.2 425.2">
  <defs>
    <clipPath id="b">
      <rect width="425.2" height="425.2"/>
    </clipPath>
  </defs>
  <g id="a" clip-path="url(#b)">
    <path d="M62.66,278.054c3.611-.061,5.056-.18,5.719-3.852l5.356-28.531A16.443,16.443,0,0,0,74.1,242.6c0-2.288-1.745-2.95-4.454-2.95H68.619l.241-1.8c2.769.059,5.478.239,8.848.239,3.611,0,7.824-.239,11.195-.239,12.038,0,19.863,8.185,19.863,18.3,0,16.492-12.64,23.716-24.8,23.716-6.622,0-9.932-.242-13.3-.242-2.769,0-5.538.181-8.307.242Zm13.6-5.659a19.572,19.572,0,0,0-.3,2.709c0,2.287,3.25,2.47,5.958,2.47,11.2,0,18.539-9.511,18.539-21.851,0-9.389-4.935-15.589-14.686-15.589-1.205,0-2.408.061-3.612.12Z" fill="#00522b"/>
    <path d="M126.072,272.761c-4.213,5.137-7.329,7.965-11.023,7.965a2.517,2.517,0,0,1-2.6-2.713c0-2.77,5.251-15.87,5.251-17.833,0-.691-.173-1.326-.865-1.326-1.442,0-3.289,2.539-4.386,3.576l-1.154-1.385c2.193-2.539,7.272-7.963,10.734-7.963,1.9,0,3.175.52,3.175,3.059,0,2.943-5.945,16.274-5.945,18.641a.682.682,0,0,0,.692.75c1.328,0,4.271-3.291,5.021-4.041Zm-2.251-34.049a3.578,3.578,0,1,1-3.577,3.579A3.675,3.675,0,0,1,123.821,238.712Z" fill="#00522b"/>
    <path d="M146.446,260.3c-.807-2.48-3.289-3.289-5.483-3.289-2.654,0-4.443.635-4.443,2.25,0,1.328,1.385,2.6,3.521,3.983l3.923,2.482c2.425,1.557,3.636,2.6,3.636,5.483,0,3.635-4.79,9.522-11.484,9.522-3.694,0-7.907-1.5-7.907-4.848,0-1.73.174-2.367,1.848-4.213h1.1c.692,4.154,6.175,4.789,8.136,4.789,2.656,0,4.387-.461,4.387-2.306,0-1.04-.173-1.674-3.52-3.868l-5.021-3.289a6.113,6.113,0,0,1-3-4.848c0-4.443,6.637-8.022,7.272-8.311a7.86,7.86,0,0,1,3.866-.75c2.655,0,5.887.346,5.887,3.694a6.961,6.961,0,0,1-1.386,3.519Z" fill="#00522b"/>
    <path d="M153.72,253.947h6.06l2.482-8.2h6l-2.424,8.2h6.752l-.692,2.885h-6.868l-3.983,13.274a20.289,20.289,0,0,0-.922,3.809c0,.578.345,1.039,1.212,1.039,2.019,0,4.27-2.828,5.886-4.213l1.039,1.213c-2.309,2.424-7.5,8.772-11.773,8.772-2.539,0-3.174-1.789-3.174-3.289,0-2.02,1.269-6.061,1.962-8.426l3.636-12.179H152.97Z" fill="#00522b"/>
    <path d="M176.345,265.489a41.99,41.99,0,0,0,1.155-5.02c0-.52-.058-1.27-.808-1.27-1.442,0-3.636,2.309-4.5,3.29l-1.039-1.27c1.962-2.539,7.04-8.137,10.388-8.137,1.789,0,2.424.98,2.424,2.6,0,3-1.847,7.561-2.6,10.389l.115.115c2.308-3.463,6.926-13.1,11.543-13.1,1.558,0,2.423.75,2.423,2.25,0,1.789-.865,4.213-2.827,4.213-1.155,0-1.617-.346-2.6-.346-2.944,0-7.33,7.5-10.388,15.294-.75,1.9-1.27,4.27-1.559,4.789-.52.75-1.27.866-3.059.866-2.134,0-2.654-.52-2.654-1.039a41.626,41.626,0,0,1,1.154-4.27Z" fill="#00522b"/>
    <path d="M208.377,272.761c-4.212,5.137-7.328,7.965-11.022,7.965a2.517,2.517,0,0,1-2.6-2.713c0-2.77,5.251-15.87,5.251-17.833,0-.691-.173-1.326-.865-1.326-1.443,0-3.29,2.539-4.386,3.576l-1.155-1.385c2.194-2.539,7.272-7.963,10.734-7.963,1.9,0,3.174.52,3.174,3.059,0,2.943-5.943,16.274-5.943,18.641a.681.681,0,0,0,.692.75c1.327,0,4.271-3.291,5.021-4.041Zm-2.25-34.049a3.578,3.578,0,1,1-3.577,3.579A3.675,3.675,0,0,1,206.127,238.712Z" fill="#00522b"/>
    <path d="M221.251,260.469l.116.115c2.306-3.232,6.463-7.5,12.061-7.5,4.848,0,7.041,3.231,7.041,7.618,0,10.156-10.735,20.026-20.026,20.026-4.329,0-8.022-1.617-8.022-6.578,0-2.542,1.154-6.351,1.674-8.427l6.4-24.989-3.635-1.9.29-1.04a41.138,41.138,0,0,0,10.213-2.019l.693.635Zm9.118-4.156c-6.176,0-12.178,11.024-12.178,18.006,0,2.424.867,4.213,3.347,4.213,6.407,0,12.12-12.926,12.12-17.889C233.658,257.756,232.678,256.313,230.369,256.313Z" fill="#00522b"/>
    <path d="M268.059,270.915a14.7,14.7,0,0,0-.866,3.463c0,.807.231,1.154.692,1.154,1.328,0,4.271-3.291,5.021-4.041l1.1,1.27c-4.039,4.387-7.559,7.965-10.446,7.965a2.619,2.619,0,0,1-2.828-2.654c0-.983.463-3.348,4.272-14.2l-.115-.115c-3.118,4.789-10.159,16.968-16.968,16.968-2.365,0-2.77-1.733-2.77-3.174,0-2.887,5.079-16.159,5.079-17.544a.727.727,0,0,0-.809-.809c-1.039,0-3.693,2.6-4.444,3.29l-1.1-1.155c2.25-2.48,7.156-8.252,10.791-8.252,1.846,0,2.713,1.039,2.713,2.885,0,4.272-5.426,15.639-5.426,17.948a.976.976,0,0,0,.924,1.039c2.539,0,8.887-9.58,9.985-11.2,3.924-5.828,4.963-10.676,6.233-10.676a4.685,4.685,0,0,1,1.441.461l2.887,1.269Z" fill="#00522b"/>
    <path d="M278.8,253.947h6.061l2.48-8.2h6l-2.424,8.2h6.753l-.692,2.885h-6.867l-3.983,13.274a20.223,20.223,0,0,0-.924,3.809c0,.578.346,1.039,1.213,1.039,2.02,0,4.27-2.828,5.885-4.213l1.039,1.213c-2.308,2.424-7.5,8.772-11.772,8.772-2.539,0-3.174-1.789-3.174-3.289,0-2.02,1.27-6.061,1.961-8.426l3.637-12.179h-5.945Z" fill="#00522b"/>
    <path d="M311,272.761c-4.213,5.137-7.331,7.965-11.025,7.965a2.516,2.516,0,0,1-2.6-2.713c0-2.77,5.25-15.87,5.25-17.833,0-.691-.172-1.326-.865-1.326-1.442,0-3.289,2.539-4.385,3.576l-1.154-1.385c2.193-2.539,7.271-7.963,10.732-7.963,1.9,0,3.174.52,3.174,3.059,0,2.943-5.943,16.274-5.943,18.641a.682.682,0,0,0,.693.75c1.326,0,4.27-3.291,5.02-4.041Zm-2.252-34.049a3.578,3.578,0,1,1-3.579,3.579A3.675,3.675,0,0,1,308.751,238.712Z" fill="#00522b"/>
    <path d="M341.994,264.219c0,8.426-6.289,16.507-15.695,16.507a10.93,10.93,0,0,1-11.314-11.139c0-9.348,7.446-16.505,15.757-16.505C338.359,253.082,341.994,258.045,341.994,264.219Zm-6.463-2.769c0-3-.576-6.174-4.617-6.174-6.809,0-9.464,11.311-9.464,16.678,0,3.635.866,6.578,4.616,6.578C333.051,278.532,335.531,266.471,335.531,261.45Z" fill="#00522b"/>
    <path d="M351,262.834a15.976,15.976,0,0,0,.752-2.826.727.727,0,0,0-.808-.809c-1.04,0-3.694,2.6-4.444,3.29l-1.1-1.155c2.252-2.48,6.811-8.252,10.446-8.252,1.848,0,2.713,1.039,2.713,2.885,0,2.252-2.885,9-3.578,11.428l.115.115c2.654-4.328,10.965-14.428,16.391-14.428,1.9,0,3.174.52,3.174,3.059,0,2.943-5.945,16.274-5.945,18.641a.683.683,0,0,0,.693.75c1.328,0,4.27-3.291,5.02-4.041l1.1,1.27c-4.214,5.137-7.331,7.965-11.024,7.965a2.517,2.517,0,0,1-2.6-2.713c0-2.77,5.252-15.87,5.252-17.37a1.308,1.308,0,0,0-1.443-1.444c-3.059,0-9.292,9.177-10.966,12.177-3.463,6.348-2.943,8.772-5.022,8.772-2.885,0-3.98-.116-3.98-.866a15.647,15.647,0,0,1,.807-2.943Z" fill="#00522b"/>
    <path d="M75.11,159.776s92.724-41.409,163.592-12.1S366.6,231.825,366.6,231.825,324.277,209.7,277.639,202s-78.368-2.191-107.546-12.239-35.665-19.1-62.8-13.118A341.147,341.147,0,0,1,54.92,183.7Z" fill="#67977b"/>
    <path d="M355.088,236.486s-42.029-7.209-92.656.957-101.25,16.326-125.658.735-58.62-48.488-65.592-52.94,23.942-23.962,48.418-18.35,47.555,25.652,82.614,28.409,76.149,5.678,103.578,14.611,61.522,20.891,68.888,30.5S355.088,236.486,355.088,236.486Z" fill="#24704c"/>
    <path d="M380.449,243.088s-9.491-18.126-33.259-35.357-54.172-33.991-79.123-42.97-48.572-16.5-73.822-18.924-44.891-3.2-75.475,4.155c-25.131,6.041-34.319,15.306-40.543,19.924A71.474,71.474,0,0,0,66.732,181.19s37.726-27.046,75.544-29.887c39.231-2.951,58.225,1.391,69.884,3.317s48.407,11.23,77.358,25.352c27.78,13.548,35.311,19.188,50.648,29.746C354.079,219.288,380.449,243.088,380.449,243.088Z" fill="#00522b"/>
    <path d="M49.151,192.912s14.946-3.548,51.868,23.513c35.709,23.833,66.6,23.516,83.147,23.857s62.1-5.952,84.793-9.455c21.928-3.387,41.648-4.689,62.542-2.8,19.811,1.792,42.152,13.427,42.152,13.427s-27.509-8.166-48.376-8.809c-20.694-.637-37.179,1.2-75.662,6.7s-54.4,8-83.332,5.884a141.173,141.173,0,0,1-67.548-23.3c-14.682-9.994-25.721-19.294-34.546-23.088S49.151,192.912,49.151,192.912Z" fill="#00522b"/>
    <path d="M60.74,276.545c3.611-.06,5.055-.18,5.718-3.852l5.357-28.531a16.517,16.517,0,0,0,.361-3.069c0-2.287-1.746-2.95-4.455-2.95H66.7l.242-1.805c2.768.059,5.477.239,8.848.239,3.61,0,7.824-.239,11.194-.239,12.039,0,19.864,8.185,19.864,18.3,0,16.492-12.641,23.716-24.8,23.716-6.622,0-9.932-.241-13.3-.241-2.768,0-5.538.18-8.307.241Zm13.6-5.658a19.54,19.54,0,0,0-.3,2.708c0,2.287,3.25,2.468,5.959,2.468,11.195,0,18.538-9.509,18.538-21.848,0-9.39-4.935-15.59-14.686-15.59-1.2,0-2.408.059-3.612.12Z" fill="#d90016"/>
    <path d="M124.151,271.252c-4.213,5.137-7.329,7.965-11.023,7.965a2.516,2.516,0,0,1-2.6-2.713c0-2.77,5.251-15.87,5.251-17.833,0-.693-.173-1.328-.866-1.328-1.442,0-3.289,2.541-4.385,3.578l-1.155-1.384c2.193-2.54,7.272-7.964,10.734-7.964,1.9,0,3.175.52,3.175,3.059,0,2.944-5.945,16.274-5.945,18.639a.681.681,0,0,0,.693.75c1.327,0,4.271-3.289,5.021-4.039ZM121.9,237.2a3.577,3.577,0,1,1-3.578,3.578A3.672,3.672,0,0,1,121.9,237.2Z" fill="#d90016"/>
    <path d="M144.525,258.787c-.807-2.481-3.289-3.29-5.482-3.29-2.655,0-4.444.635-4.444,2.25,0,1.329,1.385,2.6,3.521,3.983l3.924,2.483c2.424,1.556,3.636,2.6,3.636,5.482,0,3.635-4.79,9.522-11.485,9.522-3.694,0-7.906-1.5-7.906-4.848,0-1.732.173-2.367,1.846-4.213h1.1c.692,4.155,6.175,4.789,8.138,4.789,2.654,0,4.386-.461,4.386-2.308,0-1.037-.174-1.672-3.521-3.866l-5.021-3.289a6.117,6.117,0,0,1-3-4.848c0-4.443,6.637-8.022,7.272-8.311a7.838,7.838,0,0,1,3.866-.75c2.655,0,5.886.346,5.886,3.694a6.972,6.972,0,0,1-1.384,3.52Z" fill="#d90016"/>
    <path d="M151.8,252.439h6.058l2.482-8.2h6l-2.424,8.2h6.752l-.692,2.884h-6.867L159.129,268.6a20.3,20.3,0,0,0-.923,3.809c0,.578.346,1.039,1.212,1.039,2.02,0,4.271-2.828,5.886-4.213l1.039,1.213c-2.309,2.424-7.5,8.772-11.773,8.772-2.539,0-3.174-1.789-3.174-3.289,0-2.022,1.27-6.061,1.962-8.426l3.636-12.179h-5.945Z" fill="#d90016"/>
    <path d="M174.425,263.98a42.249,42.249,0,0,0,1.154-5.02c0-.519-.058-1.269-.808-1.269-1.442,0-3.635,2.309-4.5,3.289l-1.039-1.27c1.962-2.539,7.04-8.137,10.388-8.137,1.789,0,2.424.981,2.424,2.6,0,3-1.846,7.561-2.6,10.389l.115.116c2.309-3.464,6.925-13.1,11.541-13.1,1.559,0,2.424.75,2.424,2.25,0,1.79-.865,4.214-2.827,4.214-1.154,0-1.616-.346-2.6-.346-2.943,0-7.329,7.5-10.388,15.293-.75,1.9-1.269,4.27-1.559,4.79-.519.75-1.269.865-3.059.865-2.134,0-2.654-.52-2.654-1.039a41.961,41.961,0,0,1,1.154-4.27Z" fill="#d90016"/>
    <path d="M206.458,271.252c-4.213,5.137-7.33,7.965-11.023,7.965a2.517,2.517,0,0,1-2.6-2.713c0-2.77,5.251-15.87,5.251-17.833,0-.693-.173-1.328-.865-1.328-1.442,0-3.289,2.541-4.386,3.578l-1.154-1.384c2.193-2.54,7.272-7.964,10.733-7.964,1.906,0,3.176.52,3.176,3.059,0,2.944-5.945,16.274-5.945,18.639a.68.68,0,0,0,.692.75c1.327,0,4.271-3.289,5.021-4.039ZM204.207,237.2a3.577,3.577,0,1,1-3.578,3.578A3.673,3.673,0,0,1,204.207,237.2Z" fill="#d90016"/>
    <path d="M219.33,258.96l.115.116c2.309-3.233,6.463-7.5,12.061-7.5,4.848,0,7.041,3.231,7.041,7.618,0,10.156-10.735,20.026-20.026,20.026-4.328,0-8.022-1.617-8.022-6.58,0-2.54,1.155-6.348,1.674-8.424l6.407-24.99-3.637-1.9.289-1.039a41.128,41.128,0,0,0,10.215-2.02l.694.635Zm9.117-4.156c-6.174,0-12.176,11.024-12.176,18.007,0,2.424.865,4.213,3.348,4.213,6.4,0,12.119-12.929,12.119-17.892C231.738,256.247,230.756,254.8,228.447,254.8Z" fill="#d90016"/>
    <path d="M266.137,269.406a14.842,14.842,0,0,0-.865,3.463c0,.807.23,1.152.693,1.152,1.326,0,4.27-3.289,5.02-4.039l1.1,1.27c-4.042,4.387-7.561,7.965-10.446,7.965a2.619,2.619,0,0,1-2.829-2.654c0-.983.461-3.348,4.27-14.2l-.115-.116c-3.115,4.79-10.157,16.968-16.968,16.968-2.365,0-2.769-1.732-2.769-3.174,0-2.887,5.078-16.159,5.078-17.546a.725.725,0,0,0-.807-.806c-1.039,0-3.693,2.6-4.443,3.289l-1.1-1.154c2.252-2.483,7.157-8.253,10.791-8.253,1.848,0,2.714,1.039,2.714,2.885,0,4.272-5.424,15.639-5.424,17.948a.974.974,0,0,0,.924,1.039c2.539,0,8.887-9.58,9.982-11.2,3.924-5.828,4.963-10.676,6.233-10.676a4.643,4.643,0,0,1,1.443.461l2.885,1.27Z" fill="#d90016"/>
    <path d="M276.876,252.439h6.059l2.482-8.2h6l-2.424,8.2h6.752l-.693,2.884h-6.868L284.2,268.6a20.439,20.439,0,0,0-.921,3.809c0,.578.345,1.039,1.211,1.039,2.019,0,4.271-2.828,5.887-4.213l1.039,1.213c-2.309,2.424-7.5,8.772-11.774,8.772-2.54,0-3.174-1.789-3.174-3.289,0-2.022,1.269-6.061,1.963-8.426l3.635-12.179h-5.944Z" fill="#d90016"/>
    <path d="M309.081,271.252c-4.213,5.137-7.329,7.965-11.022,7.965a2.517,2.517,0,0,1-2.6-2.713c0-2.77,5.252-15.87,5.252-17.833,0-.693-.174-1.328-.865-1.328-1.443,0-3.289,2.541-4.387,3.578l-1.154-1.384c2.193-2.54,7.272-7.964,10.735-7.964,1.9,0,3.174.52,3.174,3.059,0,2.944-5.944,16.274-5.944,18.639a.68.68,0,0,0,.691.75c1.329,0,4.272-3.289,5.022-4.039Zm-2.25-34.048a3.577,3.577,0,1,1-3.579,3.578A3.672,3.672,0,0,1,306.831,237.2Z" fill="#d90016"/>
    <path d="M340.075,262.711c0,8.426-6.292,16.506-15.7,16.506a10.929,10.929,0,0,1-11.311-11.139c0-9.348,7.443-16.505,15.754-16.505C336.438,251.573,340.075,256.536,340.075,262.711Zm-6.463-2.77c0-3-.579-6.174-4.618-6.174-6.811,0-9.465,11.311-9.465,16.678,0,3.635.865,6.579,4.617,6.579C331.129,277.024,333.612,264.963,333.612,259.941Z" fill="#d90016"/>
    <path d="M349.081,261.326a16.055,16.055,0,0,0,.75-2.829.726.726,0,0,0-.808-.806c-1.037,0-3.694,2.6-4.444,3.289l-1.1-1.154c2.25-2.483,6.809-8.253,10.446-8.253,1.846,0,2.713,1.039,2.713,2.885,0,2.25-2.887,9-3.578,11.427l.115.115c2.655-4.326,10.966-14.427,16.39-14.427,1.9,0,3.174.52,3.174,3.059,0,2.944-5.944,16.274-5.944,18.639a.68.68,0,0,0,.691.75c1.329,0,4.272-3.289,5.022-4.039l1.1,1.27c-4.211,5.137-7.329,7.965-11.022,7.965a2.517,2.517,0,0,1-2.6-2.713c0-2.77,5.252-15.87,5.252-17.372a1.306,1.306,0,0,0-1.443-1.441c-3.059,0-9.292,9.176-10.963,12.176-3.464,6.348-2.944,8.772-5.022,8.772-2.885,0-3.983-.115-3.983-.865a15.531,15.531,0,0,1,.809-2.944Z" fill="#d90016"/>
    <path d="M167.179,189.277c-2.566-8.892-6.783-16.222-20.528-16.222-15.031,0-22.913,11.822-22.913,27.861,0,15.3,7.791,30.792,25.111,30.792,9.806,0,16.314-6.139,18.7-15.3l2.567.368a103.78,103.78,0,0,0-2.292,14.846,53.617,53.617,0,0,1-20.987,4.123c-20.62,0-35.924-11.271-35.924-34.276,0-20.526,16.587-32.442,35.466-32.442,10.722,0,14.205,3.3,22.819,4.583a107.8,107.8,0,0,0,.734,15.3Z" fill="#fff"/>
    <path d="M180.748,176.812c0-2.016-.275-2.84-2.383-3.666-1.008-.365-2.016-.824-3.024-1.191v-2.2A89.978,89.978,0,0,0,190,164.348l1.008.824v63.6c0,2.659,2.2,2.842,4.766,2.842h1.008v2.75c-3.483-.185-6.965-.368-10.539-.368-3.758,0-7.516.183-10.906.368v-2.75c2.933,0,5.407,0,5.407-2.842Z" fill="#fff"/>
    <path d="M226.664,205.5c0-5.316-3.115-7.422-7.239-7.422-5.315,0-6.691,1.374-7.056,6.507-.183,2.473-5.133,3.665-6.507,3.665-1.009,0-1.741-.733-1.741-2.109a8.654,8.654,0,0,1,5.039-7.7c3.026-1.556,6.415-3.3,9.9-5.315a9.678,9.678,0,0,1,5.5-1.283c8.063,0,12.372,4.215,12.372,12.189v18.7c0,3.94.274,6.781,2.841,6.781a4.461,4.461,0,0,0,2.566-1.191l1.191,1.65c-2.75,3.391-5.224,5.773-9.622,5.773s-6.6-3.024-6.965-7.239c-4.033,3.939-8.157,7.239-14.022,7.239-5.5,0-9.99-3.391-9.99-9.439,0-7.148,5.866-9.348,12.372-11.73l11.363-3.942Zm0,8.248c-5.039,1.65-13.471,3.391-13.471,9.806,0,3.942,2.017,5.957,5.591,5.957,4.215,0,6.874-3.483,7.88-4.857Z" fill="#fff"/>
    <path d="M283.489,224.284c-3.665,6.415-9.9,11.456-17.6,11.456-11.545,0-17.778-10.63-17.778-21.078,0-11.548,7.789-22.82,20.254-22.82,9.44,0,14.572,6.965,14.388,16.037l-1.1,1.009H256.913c0,9.348,4.309,18.6,14.2,18.6a13.917,13.917,0,0,0,10.907-4.951Zm-15.946-18.146c4.95,0,5.683-.091,5.683-3.389,0-3.483-2.291-7.607-6.415-7.607-5.589,0-8.707,5.315-9.716,11Z" fill="#fff"/>
    <path d="M312.272,204.214c-.459-5.133-2.382-9.072-8.248-9.072-3.117,0-6.232,1.924-6.232,5.5,0,9.989,18.969,7.7,18.969,21.629,0,9.9-7.972,13.471-15.578,13.471-4.4,0-7.7-1.282-10.816-2.382l-.823-10.174,2.565-.548c.55,5.039,3.574,9.8,8.983,9.8,3.574,0,6.871-2.015,6.871-6.047,0-8.8-18.419-7.333-18.419-21.446,0-8.063,6.23-13.105,14.663-13.105a29.545,29.545,0,0,1,10.813,2.2,57.8,57.8,0,0,0-.183,9.713Z" fill="#fff"/>
    <rect width="1.113" height="195.618" transform="translate(108.719 114.249)" fill="#d90016"/>
    <rect width="378.615" height="1.113" transform="translate(22.825 235.421)" fill="#d90016"/>
  </g>
</svg>