<svg xmlns="http://www.w3.org/2000/svg" xmlns:xlink="http://www.w3.org/1999/xlink" width="378.2" height="196" viewBox="0 0 378.2 196">
  <defs>
    <clipPath id="clip-Tekengebied_1">
      <rect width="378.2" height="196"/>
    </clipPath>
  </defs>
  <g id="Tekengebied_1" data-name="Tekengebied 1" clip-path="url(#clip-Tekengebied_1)">
    <path id="Path_1" data-name="Path 1" d="M75.11,159.776s92.724-41.409,163.592-12.1S366.6,231.825,366.6,231.825,324.277,209.7,277.639,202s-78.368-2.191-107.546-12.239-35.665-19.1-62.8-13.118A341.147,341.147,0,0,1,54.92,183.7Z" transform="translate(-23 -114)" fill="#67977b"/>
    <path id="Path_2" data-name="Path 2" d="M355.088,236.486s-42.029-7.209-92.656.957-101.25,16.326-125.658.735-58.62-48.488-65.592-52.94,23.942-23.962,48.418-18.35,47.555,25.652,82.614,28.409,76.149,5.678,103.578,14.611,61.522,20.891,68.888,30.5S355.088,236.486,355.088,236.486Z" transform="translate(-23 -114)" fill="#24704c"/>
    <path id="Path_3" data-name="Path 3" d="M380.449,243.088s-9.491-18.126-33.259-35.357-54.172-33.991-79.123-42.97-48.572-16.5-73.822-18.924-44.891-3.2-75.475,4.155c-25.131,6.041-34.319,15.306-40.543,19.924A71.474,71.474,0,0,0,66.732,181.19s37.726-27.046,75.544-29.887c39.231-2.951,58.225,1.391,69.884,3.317s48.407,11.23,77.358,25.352c27.78,13.548,35.311,19.188,50.648,29.746C354.079,219.288,380.449,243.088,380.449,243.088Z" transform="translate(-23 -114)" fill="#00522b"/>
    <path id="Path_4" data-name="Path 4" d="M49.151,192.912s14.946-3.548,51.868,23.513c35.709,23.833,66.6,23.516,83.147,23.857s62.1-5.952,84.793-9.455c21.928-3.387,41.648-4.689,62.542-2.8,19.811,1.792,42.152,13.427,42.152,13.427s-27.509-8.166-48.376-8.809c-20.694-.637-37.179,1.2-75.662,6.7s-54.4,8-83.332,5.884a141.173,141.173,0,0,1-67.548-23.3c-14.682-9.994-25.721-19.294-34.546-23.088S49.151,192.912,49.151,192.912Z" transform="translate(-23 -114)" fill="#00522b"/>
    <g id="Group_1" data-name="Group 1" transform="translate(-23 -114)">
      <rect id="Rectangle_1" data-name="Rectangle 1" width="1.113" height="195.618" transform="translate(108.719 114.249)" fill="#d90016"/>
    </g>
    <g id="Group_2" data-name="Group 2" transform="translate(-23 -114)">
      <rect id="Rectangle_2" data-name="Rectangle 2" width="378.615" height="1.113" transform="translate(22.825 235.421)" fill="#d90016"/>
    </g>
    <path id="Path_5" data-name="Path 5" d="M-30.056-18.46a.8.8,0,0,1,.611.234.836.836,0,0,1,.221.6V-.7a.867.867,0,0,1-.208.6A.726.726,0,0,1-30,.13a.666.666,0,0,1-.546-.221A.934.934,0,0,1-30.732-.7v-14.43L-36.894-3.224a.95.95,0,0,1-.858.6.95.95,0,0,1-.858-.6l-6.214-11.8V-.7a.934.934,0,0,1-.182.611.666.666,0,0,1-.546.221.739.739,0,0,1-.585-.221A.892.892,0,0,1-46.332-.7V-17.628a.836.836,0,0,1,.221-.6.8.8,0,0,1,.611-.234q.468,0,.78.6l6.994,13.416,6.89-13.416Q-30.524-18.46-30.056-18.46ZM-9.048-.858a.692.692,0,0,1,.078.312A.6.6,0,0,1-9.2-.065.827.827,0,0,1-9.75.13a.717.717,0,0,1-.4-.13.83.83,0,0,1-.3-.364l-1.976-4.524H-22.516l-2,4.524a.766.766,0,0,1-.728.494.778.778,0,0,1-.533-.195A.644.644,0,0,1-26-.572a.648.648,0,0,1,.052-.286l7.592-17.056a.855.855,0,0,1,.858-.572.98.98,0,0,1,.533.156.862.862,0,0,1,.351.416Zm-12.87-5.434h8.866l-4.42-10.062ZM9.672-.858a.692.692,0,0,1,.078.312.6.6,0,0,1-.234.481A.827.827,0,0,1,8.97.13a.717.717,0,0,1-.4-.13.83.83,0,0,1-.3-.364L6.292-4.888H-3.8l-2,4.524A.766.766,0,0,1-6.526.13a.778.778,0,0,1-.533-.195A.644.644,0,0,1-7.28-.572a.648.648,0,0,1,.052-.286L.364-17.914a.855.855,0,0,1,.858-.572.98.98,0,0,1,.533.156.862.862,0,0,1,.351.416ZM-3.2-6.292H5.668L1.248-16.354ZM26.572-18.46a.706.706,0,0,1,.559.221.892.892,0,0,1,.195.611V-.7a.867.867,0,0,1-.208.6.726.726,0,0,1-.572.234.894.894,0,0,1-.7-.39L14.456-15.626V-.7a.867.867,0,0,1-.208.6A.7.7,0,0,1,13.7.13a.7.7,0,0,1-.572-.221A.934.934,0,0,1,12.948-.7V-17.628a.836.836,0,0,1,.221-.6.8.8,0,0,1,.611-.234.784.784,0,0,1,.676.39L25.818-2.73v-14.9a.867.867,0,0,1,.208-.6A.7.7,0,0,1,26.572-18.46ZM32.916,0a.854.854,0,0,1-.611-.234.758.758,0,0,1-.247-.572V-17.524a.758.758,0,0,1,.247-.572.854.854,0,0,1,.611-.234H37.96a9.118,9.118,0,0,1,6.721,2.366Q47.06-13.6,47.06-9.178t-2.379,6.8A9.089,9.089,0,0,1,37.96,0Zm4.966-1.4q7.488,0,7.488-7.774,0-7.748-7.488-7.748H33.67V-1.4ZM-46.436,35.13a.767.767,0,0,1-.585-.234.836.836,0,0,1-.221-.6V17.476A.758.758,0,0,1-47,16.9a.854.854,0,0,1,.611-.234h9.62a.75.75,0,0,1,.533.182.676.676,0,0,1,.195.52.635.635,0,0,1-.195.507.786.786,0,0,1-.533.169H-45.63V24.99h8.346a.75.75,0,0,1,.533.182.676.676,0,0,1,.195.52.676.676,0,0,1-.195.52.75.75,0,0,1-.533.182H-45.63v7.9a.856.856,0,0,1-.208.611A.782.782,0,0,1-46.436,35.13Zm20.54.078a8.146,8.146,0,0,1-4.342-1.131,7.333,7.333,0,0,1-2.834-3.25,11.68,11.68,0,0,1-.988-4.979,11.747,11.747,0,0,1,.988-5,7.359,7.359,0,0,1,2.821-3.25A8.129,8.129,0,0,1-25.9,16.462a8.2,8.2,0,0,1,4.368,1.131,7.345,7.345,0,0,1,2.834,3.237,11.659,11.659,0,0,1,.988,4.992,11.747,11.747,0,0,1-.988,5,7.333,7.333,0,0,1-2.834,3.25A8.2,8.2,0,0,1-25.9,35.208Zm0-1.43a5.889,5.889,0,0,0,4.81-2.08,8.994,8.994,0,0,0,1.716-5.876,8.988,8.988,0,0,0-1.7-5.863A5.9,5.9,0,0,0-25.9,17.892a5.851,5.851,0,0,0-4.8,2.08,9,9,0,0,0-1.7,5.85,9.052,9.052,0,0,0,1.7,5.863A5.835,5.835,0,0,0-25.9,33.778ZM-12.844,35a.879.879,0,0,1-.585-.208.652.652,0,0,1-.247-.52v-16.9a.836.836,0,0,1,.221-.6.767.767,0,0,1,.585-.234.782.782,0,0,1,.6.221.856.856,0,0,1,.208.611V33.6h8.892a.75.75,0,0,1,.533.182.676.676,0,0,1,.195.52.676.676,0,0,1-.195.52A.75.75,0,0,1-3.172,35ZM1.04,35a.854.854,0,0,1-.611-.234.758.758,0,0,1-.247-.572V17.476A.758.758,0,0,1,.429,16.9a.854.854,0,0,1,.611-.234H6.084A9.118,9.118,0,0,1,12.8,19.036q2.379,2.366,2.379,6.786t-2.379,6.8A9.089,9.089,0,0,1,6.084,35Zm4.966-1.4q7.488,0,7.488-7.774,0-7.748-7.488-7.748H1.794V33.6ZM20.046,35a.854.854,0,0,1-.611-.234.758.758,0,0,1-.247-.572V17.476a.758.758,0,0,1,.247-.572.854.854,0,0,1,.611-.234h9.88a.75.75,0,0,1,.533.182.676.676,0,0,1,.195.52.643.643,0,0,1-.195.494.75.75,0,0,1-.533.182H20.774V24.99h8.632a.75.75,0,0,1,.533.182.791.791,0,0,1,0,1.04.75.75,0,0,1-.533.182H20.774v7.228h9.152a.786.786,0,0,1,.533.169.635.635,0,0,1,.195.507.676.676,0,0,1-.195.52.75.75,0,0,1-.533.182Zm27.9-.962a.806.806,0,0,1,.156.442.616.616,0,0,1-.221.481.744.744,0,0,1-.507.195.794.794,0,0,1-.7-.416l-3.51-5.616a4.656,4.656,0,0,0-1.547-1.638,4.546,4.546,0,0,0-2.2-.442H35.854V34.3a.826.826,0,0,1-.221.611.885.885,0,0,1-1.17,0,.826.826,0,0,1-.221-.611V17.476a.758.758,0,0,1,.247-.572.854.854,0,0,1,.611-.234h6.474a6.719,6.719,0,0,1,4.446,1.313,4.73,4.73,0,0,1,1.56,3.835,4.691,4.691,0,0,1-1.326,3.51,5.88,5.88,0,0,1-3.744,1.508,3.136,3.136,0,0,1,1.144.689,6.8,6.8,0,0,1,1.066,1.339ZM41.47,25.666q4.524,0,4.524-3.874a3.447,3.447,0,0,0-1.118-2.821,5.274,5.274,0,0,0-3.406-.923H35.828v7.618Z" transform="translate(168 71)" fill="#fff"/>
  </g>
</svg>
