<?xml version="1.0" encoding="utf-8"?>
<!-- Generator: Adobe Illustrator 23.0.1, SVG Export Plug-In . SVG Version: 6.00 Build 0)  -->
<svg version="1.1" xmlns="http://www.w3.org/2000/svg" xmlns:xlink="http://www.w3.org/1999/xlink" x="0px" y="0px"
	 viewBox="0 0 240 240" style="enable-background:new 0 0 240 240;" xml:space="preserve">
<style type="text/css">
	.st0{fill:#78A78E;}
	.st1{fill:#80B19C;}
	.st2{fill:#408A6B;}
	.st3{fill:#00633A;}
	.st4{fill:#FFFFFF;}
	.st5{fill:#E2251D;}
</style>
<g id="Layer_11">
	<rect x="0" y="0" class="st0" width="240" height="240"/>
</g>
<g id="Blad_x5F_Distribution">
	<path class="st1" d="M33.2,86.4c0,0,58.7-26.2,103.6-7.7c44.9,18.6,81,53.3,81,53.3s-26.8-14-56.3-18.9
		c-29.5-4.9-49.6-1.4-68.1-7.8C74.9,99,70.8,93.3,53.6,97.1c-17.2,3.8-33.2,4.5-33.2,4.5L33.2,86.4z"/>
	<path class="st2" d="M210.5,135c0,0-26.6-4.6-58.7,0.6c-32.1,5.2-64.1,10.3-79.6,0.5c-15.5-9.9-37.1-30.7-41.5-33.5
		c-4.4-2.8,15.2-15.2,30.7-11.6c15.5,3.6,30.1,16.2,52.3,18c22.2,1.7,48.2,3.6,65.6,9.3c17.4,5.7,39,13.2,43.6,19.3
		C227.5,143.6,210.5,135,210.5,135z"/>
	<path class="st3" d="M226.6,139.2c0,0-6-11.5-21.1-22.4c-15.1-10.9-34.3-21.5-50.1-27.2c-15.8-5.7-30.8-10.4-46.7-12
		c-16-1.5-28.4-2-47.8,2.6C45,84,39.2,89.9,35.2,92.8C31.3,95.8,28,100,28,100s23.9-17.1,47.8-18.9c24.8-1.9,36.9,0.9,44.3,2.1
		c7.4,1.2,30.7,7.1,49,16.1c17.6,8.6,22.4,12.1,32.1,18.8C209.9,124.1,226.6,139.2,226.6,139.2z"/>
	<path class="st3" d="M16.7,107.4c0,0,9.5-2.2,32.8,14.9c22.6,15.1,42.2,14.9,52.7,15.1c10.5,0.2,39.3-3.8,53.7-6
		c13.9-2.1,26.4-3,39.6-1.8c12.5,1.1,26.7,8.5,26.7,8.5s-17.4-5.2-30.6-5.6c-13.1-0.4-23.5,0.8-47.9,4.2
		c-24.4,3.5-34.5,5.1-52.8,3.7c-18.3-1.3-33.5-8.4-42.8-14.8c-9.3-6.3-16.3-12.2-21.9-14.6C20.7,108.7,16.7,107.4,16.7,107.4z"/>
	<g>
		<path class="st4" d="M91.5,105.1c-1.6-5.6-4.3-10.3-13-10.3c-9.5,0-14.5,7.5-14.5,17.6c0,9.7,4.9,19.5,15.9,19.5
			c6.2,0,10.3-3.9,11.8-9.7l1.6,0.2c-0.8,3.1-1.2,6.3-1.5,9.4c-3.4,1.5-8,2.6-13.3,2.6c-13.1,0-22.7-7.1-22.7-21.7
			c0-13,10.5-20.5,22.5-20.5c6.8,0,9,2.1,14.4,2.9c-0.1,3.2,0.1,6.4,0.5,9.7L91.5,105.1z"/>
		<path class="st4" d="M100.1,97.2c0-1.3-0.2-1.8-1.5-2.3c-0.6-0.2-1.3-0.5-1.9-0.8v-1.4c2.6-0.6,6.4-2.1,9.3-3.4l0.6,0.5v40.3
			c0,1.7,1.4,1.8,3,1.8h0.6v1.7c-2.2-0.1-4.4-0.2-6.7-0.2c-2.4,0-4.8,0.1-6.9,0.2v-1.7c1.9,0,3.4,0,3.4-1.8V97.2z"/>
		<path class="st4" d="M129.2,115.4c0-3.4-2-4.7-4.6-4.7c-3.4,0-4.2,0.9-4.5,4.1c-0.1,1.6-3.3,2.3-4.1,2.3c-0.6,0-1.1-0.5-1.1-1.3
			c0-2.3,1.4-3.9,3.2-4.9c1.9-1,4.1-2.1,6.3-3.4c1.3-0.8,2.3-0.8,3.5-0.8c5.1,0,7.8,2.7,7.8,7.7v11.8c0,2.5,0.2,4.3,1.8,4.3
			c0.5,0,1.3-0.4,1.6-0.8l0.8,1c-1.7,2.1-3.3,3.7-6.1,3.7c-2.8,0-4.2-1.9-4.4-4.6c-2.6,2.5-5.2,4.6-8.9,4.6c-3.5,0-6.3-2.1-6.3-6
			c0-4.5,3.7-5.9,7.8-7.4l7.2-2.5V115.4z M129.2,120.6c-3.2,1-8.5,2.1-8.5,6.2c0,2.5,1.3,3.8,3.5,3.8c2.7,0,4.4-2.2,5-3.1V120.6z"/>
		<path class="st4" d="M165.1,127.3c-2.3,4.1-6.3,7.3-11.1,7.3c-7.3,0-11.3-6.7-11.3-13.3c0-7.3,4.9-14.5,12.8-14.5
			c6,0,9.2,4.4,9.1,10.2l-0.7,0.6h-15.7c0,5.9,2.7,11.8,9,11.8c2.8,0,5-1,6.9-3.1L165.1,127.3z M155,115.8c3.1,0,3.6-0.1,3.6-2.1
			c0-2.2-1.5-4.8-4.1-4.8c-3.5,0-5.5,3.4-6.2,7H155z"/>
		<path class="st4" d="M183.4,114.6c-0.3-3.3-1.5-5.7-5.2-5.7c-2,0-3.9,1.2-3.9,3.5c0,6.3,12,4.9,12,13.7c0,6.3-5,8.5-9.9,8.5
			c-2.8,0-4.9-0.8-6.8-1.5l-0.5-6.4l1.6-0.3c0.3,3.2,2.3,6.2,5.7,6.2c2.3,0,4.4-1.3,4.4-3.8c0-5.6-11.7-4.6-11.7-13.6
			c0-5.1,3.9-8.3,9.3-8.3c2.6,0,4.6,0.6,6.8,1.4c-0.2,2.1-0.3,4.1-0.1,6.2L183.4,114.6z"/>
	</g>
	<g>
		<rect x="54.5" y="57.6" class="st5" width="0.7" height="123.9"/>
	</g>
	<g>
		<rect x="0.1" y="134.3" class="st5" width="239.7" height="0.7"/>
	</g>
</g>
<g id="Distr_x5F_Dépliant_promo">
	<g>
		<g>
			<path class="st3" d="M33.2,155.3c1.7,0,2.4-0.1,2.7-1.8l2.5-13.5c0.1-0.4,0.2-1,0.2-1.5c0-1.1-0.8-1.4-2.1-1.4h-0.5l0.1-0.9
				c1.3,0,2.6,0.1,4.2,0.1c1.7,0,3.7-0.1,5.3-0.1c5.7,0,9.4,3.9,9.4,8.7c0,7.8-6,11.2-11.7,11.2c-3.1,0-4.7-0.1-6.3-0.1
				c-1.3,0-2.6,0.1-3.9,0.1L33.2,155.3z M39.7,152.6c-0.1,0.4-0.1,0.9-0.1,1.3c0,1.1,1.5,1.2,2.8,1.2c5.3,0,8.8-4.5,8.8-10.3
				c0-4.4-2.3-7.4-7-7.4c-0.6,0-1.1,0-1.7,0.1L39.7,152.6z"/>
			<path class="st3" d="M66.6,153.1c-1.8,1.7-3.9,3.5-6.9,3.5c-2.6,0-3.7-2.1-3.7-4.4c0-4.5,4.2-9.3,8.6-9.3c1.6,0,3,0.7,3,2.5
				c0,3.4-5.5,4.8-8.3,5.2c-0.1,0.3-0.2,0.9-0.2,1.6c0,1.3,0.8,2.5,2.2,2.5c1.9,0,3.6-1.3,4.7-2.2L66.6,153.1z M63.5,144
				c-1.7,0-3.6,3.7-3.9,5.4c2-0.1,5-1.8,5-4.3C64.5,144.4,64.2,144,63.5,144z M65.6,136.3c0.8-0.9,1.2-1.1,1.7-1.1
				c0.7,0,1.2,0.5,1.2,1.3c0,0.6-0.6,0.9-1.9,1.7l-3.5,2h-1.3L65.6,136.3z"/>
			<path class="st3" d="M74.5,143.4c1.1-0.3,2.2-0.5,3.3-0.5c2.4,0,4.5,0.7,4.5,3.6c0,4.4-4.1,10.1-8.8,10.1c-0.8,0-1.7-0.3-2.1-0.7
				l-1.3,5.1l2.3,0.5l-0.1,0.7c-1.2,0.2-3.8,0.5-5.1,0.7l-0.3-0.2c1.4-5.8,2.9-11.6,4.3-17.4c-0.8,0.2-2.7,0.9-3.3,1.2l0.2-1.1
				c0.6-0.3,2.4-1,3.4-1.3l0.9-3.6l3.1-0.9L74.5,143.4z M72.6,151.5c-0.1,0.6-0.5,1.9-0.5,2.5c0,1,0.7,1.5,1.7,1.5
				c3.1,0,5.4-6.5,5.4-9.1c0-1.5-0.8-2.3-2.5-2.3c-1.1,0-1.9,0.1-2.3,0.2L72.6,151.5z"/>
			<path class="st3" d="M88.4,136.8l-1.8-0.9l0.1-0.5c1.5-0.1,3.9-0.6,5-1l0.3,0.3c-0.5,1.7-1.3,4.4-1.8,6.6l-2.7,10.9
				c-0.1,0.5-0.3,1.1-0.3,1.4c0,0.3,0.1,0.5,0.4,0.5c0.6,0,1.6-1,2.6-2.1l0.5,0.6c-2.9,3.2-4,4.1-5.4,4.1c-1.2,0-1.4-0.8-1.4-1.6
				c0-0.7,0.4-2.3,0.7-3.7L88.4,136.8z"/>
			<path class="st3" d="M99,152.6c-2.1,2.5-3.6,3.9-5.4,3.9c-0.8,0-1.3-0.5-1.3-1.3c0-1.4,2.6-7.8,2.6-8.8c0-0.3-0.1-0.7-0.4-0.7
				c-0.7,0-1.6,1.3-2.2,1.8l-0.6-0.7c1.1-1.3,3.6-3.9,5.3-3.9c0.9,0,1.6,0.3,1.6,1.5c0,1.5-2.9,8-2.9,9.2c0,0.2,0.1,0.4,0.3,0.4
				c0.7,0,2.1-1.6,2.5-2L99,152.6z M97.9,135.8c0.9,0,1.8,0.8,1.8,1.8s-0.8,1.8-1.8,1.8c-0.9,0-1.8-0.8-1.8-1.8S97,135.8,97.9,135.8
				z"/>
			<path class="st3" d="M111.3,151.7c-0.3,0.8-0.4,1.4-0.4,1.6c0,0.3,0.1,0.5,0.5,0.5c0.7,0,1.6-0.9,2.4-1.9l0.6,0.6
				c-1.1,1.2-3.6,4.2-5.4,4.2c-0.7,0-1.3-0.5-1.3-1.3c0-1.1,0.9-3.4,1.2-4.3l-0.1-0.1c-1.2,2.1-4.2,5.7-6.8,5.7c-1.5,0-2-1.3-2-2.4
				c0-5.4,6.2-11.2,9.5-11.2c0.8,0,1.2,0.3,1.7,1.1l0.6-1.3c0.1-0.2,0.1-0.3,0.6-0.3c1.4,0,1.6,0.1,1.6,0.4c0,0.2-0.4,1.3-0.7,2.3
				L111.3,151.7z M104.1,154c2.5,0,5.9-5.7,5.9-7.9c0-0.9-0.4-1.6-1.4-1.6c-3,0-5.7,5.1-5.7,7.5C102.9,152.9,103.1,154,104.1,154z"
				/>
			<path class="st3" d="M118,147.7c0.2-0.6,0.4-1.1,0.4-1.4c0-0.2-0.1-0.4-0.4-0.4c-0.5,0-1.8,1.3-2.2,1.6l-0.5-0.6
				c1.1-1.2,3.4-4.1,5.2-4.1c0.9,0,1.3,0.5,1.3,1.4c0,1.1-1.4,4.4-1.8,5.6l0.1,0.1c1.3-2.1,5.4-7.1,8.1-7.1c0.9,0,1.6,0.3,1.6,1.5
				c0,1.5-2.9,8-2.9,9.2c0,0.2,0.1,0.4,0.3,0.4c0.7,0,2.1-1.6,2.5-2l0.5,0.6c-2.1,2.5-3.6,3.9-5.4,3.9c-0.8,0-1.3-0.5-1.3-1.3
				c0-1.4,2.6-7.8,2.6-8.6c0-0.4-0.2-0.7-0.7-0.7c-1.5,0-4.6,4.5-5.4,6c-1.7,3.1-1.5,4.3-2.5,4.3c-1.4,0-2-0.1-2-0.4
				c0-0.3,0.2-0.7,0.4-1.5L118,147.7z"/>
			<path class="st3" d="M132.2,143.3h3l1.2-4h3l-1.2,4h3.3l-0.3,1.4h-3.4l-2,6.6c-0.1,0.5-0.5,1.5-0.5,1.9c0,0.3,0.2,0.5,0.6,0.5
				c1,0,2.1-1.4,2.9-2.1l0.5,0.6c-1.1,1.2-3.7,4.3-5.8,4.3c-1.3,0-1.6-0.9-1.6-1.6c0-1,0.6-3,1-4.2l1.8-6h-2.9L132.2,143.3z"/>
			<path class="st3" d="M154.3,143.4c1.1-0.3,2.2-0.5,3.3-0.5c2.4,0,4.5,0.7,4.5,3.6c0,4.4-4.1,10.1-8.8,10.1
				c-0.8,0-1.7-0.3-2.1-0.7l-1.3,5.1l2.3,0.5l-0.1,0.7c-1.2,0.2-3.8,0.5-5.1,0.7l-0.3-0.2c1.4-5.8,2.9-11.6,4.3-17.4
				c-0.8,0.2-2.7,0.9-3.3,1.2l0.2-1.1c0.6-0.3,2.4-1,3.4-1.3l0.9-3.6l3.1-0.9L154.3,143.4z M152.3,151.5c-0.1,0.6-0.5,1.9-0.5,2.5
				c0,1,0.7,1.5,1.7,1.5c3.1,0,5.4-6.5,5.4-9.1c0-1.5-0.8-2.3-2.5-2.3c-1.1,0-1.9,0.1-2.3,0.2L152.3,151.5z"/>
			<path class="st3" d="M166,149c0.2-0.7,0.6-2.1,0.6-2.5c0-0.3,0-0.6-0.4-0.6c-0.7,0-1.8,1.1-2.2,1.6l-0.5-0.6c1-1.3,3.5-4,5.1-4
				c0.9,0,1.2,0.5,1.2,1.3c0,1.5-0.9,3.7-1.3,5.1l0.1,0.1c1.1-1.7,3.4-6.5,5.7-6.5c0.8,0,1.2,0.4,1.2,1.1c0,0.9-0.4,2.1-1.4,2.1
				c-0.6,0-0.8-0.2-1.3-0.2c-1.5,0-3.6,3.7-5.1,7.5c-0.4,0.9-0.6,2.1-0.8,2.4c-0.3,0.4-0.6,0.4-1.5,0.4c-1.1,0-1.3-0.3-1.3-0.5
				c0-0.1,0.4-1.6,0.6-2.1L166,149z"/>
			<path class="st3" d="M187.7,148.4c0,4.2-3.1,8.1-7.7,8.1c-3.5,0-5.6-2.6-5.6-5.5c0-4.6,3.7-8.1,7.8-8.1
				C185.9,142.9,187.7,145.4,187.7,148.4z M184.6,147c0-1.5-0.3-3-2.3-3c-3.4,0-4.7,5.6-4.7,8.2c0,1.8,0.4,3.2,2.3,3.2
				C183.3,155.5,184.6,149.5,184.6,147z"/>
			<path class="st3" d="M191.8,147.7c0.2-0.6,0.4-1.1,0.4-1.4c0-0.2-0.1-0.4-0.4-0.4c-0.5,0-1.8,1.3-2.2,1.6l-0.5-0.6
				c1.1-1.2,3.4-4.1,5.2-4.1c0.9,0,1.3,0.5,1.3,1.4c0,1.1-1.4,4.4-1.8,5.6l0.1,0.1c1.3-2.1,5.4-7.1,7.8-7.1c0.9,0,1.3,0.5,1.3,1.4
				c0,1.1-1.4,4.4-1.8,5.6l0.1,0.1c1.3-2.1,5.4-7.1,8.1-7.1c0.9,0,1.6,0.3,1.6,1.5c0,1.5-2.9,8-2.9,9.2c0,0.2,0.1,0.4,0.3,0.4
				c0.7,0,2.1-1.6,2.5-2l0.5,0.6c-2.1,2.5-3.6,3.9-5.4,3.9c-0.8,0-1.3-0.5-1.3-1.3c0-1.4,2.6-7.8,2.6-8.6c0-0.4-0.2-0.7-0.6-0.7
				c-1.5,0-4.3,3.7-5.4,6.2c-1.6,3.4-1.4,4.2-2.5,4.2c-1.6,0-1.9-0.2-1.9-0.6c0-0.3,0.3-1.3,0.5-1.6l2.2-6.2c0.1-0.3,0.3-1,0.3-1.3
				s-0.1-0.6-0.5-0.6c-1.5,0-4.6,4.5-5.4,6c-1.7,3.1-1.5,4.3-2.5,4.3c-1.4,0-2-0.1-2-0.4c0-0.3,0.2-0.7,0.4-1.5L191.8,147.7z"/>
			<path class="st3" d="M226,148.4c0,4.2-3.1,8.1-7.7,8.1c-3.5,0-5.6-2.6-5.6-5.5c0-4.6,3.7-8.1,7.8-8.1
				C224.2,142.9,226,145.4,226,148.4z M222.8,147c0-1.5-0.3-3-2.3-3c-3.4,0-4.7,5.6-4.7,8.2c0,1.8,0.4,3.2,2.3,3.2
				C221.6,155.5,222.8,149.5,222.8,147z"/>
		</g>
		<g>
			<g>
				<path class="st5" d="M32.1,153.2c1.7,0,2.4-0.1,2.7-1.8l2.5-13.5c0.1-0.4,0.2-1,0.2-1.5c0-1.1-0.8-1.4-2.1-1.4h-0.5l0.1-0.9
					c1.3,0,2.6,0.1,4.2,0.1c1.7,0,3.7-0.1,5.3-0.1c5.7,0,9.4,3.9,9.4,8.7c0,7.8-6,11.2-11.7,11.2c-3.1,0-4.7-0.1-6.3-0.1
					c-1.3,0-2.6,0.1-3.9,0.1L32.1,153.2z M38.6,150.6c-0.1,0.4-0.1,0.9-0.1,1.3c0,1.1,1.5,1.2,2.8,1.2c5.3,0,8.8-4.5,8.8-10.3
					c0-4.4-2.3-7.4-7-7.4c-0.6,0-1.1,0-1.7,0.1L38.6,150.6z"/>
				<path class="st5" d="M65.5,151c-1.8,1.7-3.9,3.5-6.9,3.5c-2.6,0-3.7-2.1-3.7-4.4c0-4.5,4.2-9.3,8.6-9.3c1.6,0,3,0.7,3,2.5
					c0,3.4-5.5,4.8-8.3,5.2c-0.1,0.3-0.2,0.9-0.2,1.6c0,1.3,0.8,2.5,2.2,2.5c1.9,0,3.6-1.3,4.7-2.2L65.5,151z M62.3,142
					c-1.7,0-3.6,3.7-3.9,5.4c2-0.1,5-1.8,5-4.3C63.4,142.3,63.1,142,62.3,142z M64.5,134.3c0.8-0.9,1.2-1.1,1.7-1.1
					c0.7,0,1.2,0.5,1.2,1.3c0,0.6-0.6,0.9-1.9,1.7l-3.5,2h-1.3L64.5,134.3z"/>
				<path class="st5" d="M73.4,141.4c1.1-0.3,2.2-0.5,3.3-0.5c2.4,0,4.5,0.7,4.5,3.6c0,4.4-4.1,10.1-8.8,10.1
					c-0.8,0-1.7-0.3-2.1-0.7L69,159l2.3,0.5l-0.1,0.7c-1.2,0.2-3.8,0.5-5.1,0.7l-0.3-0.2c1.4-5.8,2.9-11.6,4.3-17.4
					c-0.8,0.2-2.7,0.9-3.3,1.2l0.2-1.1c0.6-0.3,2.4-1,3.4-1.3l0.9-3.6l3.1-0.9L73.4,141.4z M71.4,149.5c-0.1,0.6-0.5,1.9-0.5,2.5
					c0,1,0.7,1.5,1.7,1.5c3.1,0,5.4-6.5,5.4-9.1c0-1.5-0.8-2.3-2.5-2.3c-1.1,0-1.9,0.1-2.3,0.2L71.4,149.5z"/>
				<path class="st5" d="M87.3,134.8l-1.8-0.9l0.1-0.5c1.5-0.1,3.9-0.6,5-1l0.3,0.3c-0.5,1.7-1.3,4.4-1.8,6.6L86.5,150
					c-0.1,0.5-0.3,1.1-0.3,1.4c0,0.3,0.1,0.5,0.4,0.5c0.6,0,1.6-1,2.6-2.1l0.5,0.6c-2.9,3.2-4,4.1-5.4,4.1c-1.2,0-1.4-0.8-1.4-1.6
					c0-0.7,0.4-2.3,0.7-3.7L87.3,134.8z"/>
				<path class="st5" d="M97.9,150.6c-2.1,2.5-3.6,3.9-5.4,3.9c-0.8,0-1.3-0.5-1.3-1.3c0-1.4,2.6-7.8,2.6-8.8c0-0.3-0.1-0.7-0.4-0.7
					c-0.7,0-1.6,1.3-2.2,1.8l-0.6-0.7c1.1-1.3,3.6-3.9,5.3-3.9c0.9,0,1.6,0.3,1.6,1.5c0,1.5-2.9,8-2.9,9.2c0,0.2,0.1,0.4,0.3,0.4
					c0.7,0,2.1-1.6,2.5-2L97.9,150.6z M96.8,133.8c0.9,0,1.8,0.8,1.8,1.8s-0.8,1.8-1.8,1.8c-0.9,0-1.8-0.8-1.8-1.8
					S95.9,133.8,96.8,133.8z"/>
				<path class="st5" d="M110.2,149.6c-0.3,0.8-0.4,1.4-0.4,1.6c0,0.3,0.1,0.5,0.5,0.5c0.7,0,1.6-0.9,2.4-1.9l0.6,0.6
					c-1.1,1.2-3.6,4.2-5.4,4.2c-0.7,0-1.3-0.5-1.3-1.3c0-1.1,0.9-3.4,1.2-4.3l-0.1-0.1c-1.2,2.1-4.2,5.7-6.8,5.7c-1.5,0-2-1.3-2-2.4
					c0-5.4,6.2-11.2,9.5-11.2c0.8,0,1.2,0.3,1.7,1.1l0.6-1.3c0.1-0.2,0.1-0.3,0.6-0.3c1.4,0,1.6,0.1,1.6,0.4c0,0.2-0.4,1.3-0.7,2.3
					L110.2,149.6z M103,151.9c2.5,0,5.9-5.7,5.9-7.9c0-0.9-0.4-1.6-1.4-1.6c-3,0-5.7,5.1-5.7,7.5C101.8,150.8,102,151.9,103,151.9z"
					/>
				<path class="st5" d="M116.9,145.7c0.2-0.6,0.4-1.1,0.4-1.4c0-0.2-0.1-0.4-0.4-0.4c-0.5,0-1.8,1.3-2.2,1.6l-0.5-0.6
					c1.1-1.2,3.4-4.1,5.2-4.1c0.9,0,1.3,0.5,1.3,1.4c0,1.1-1.4,4.4-1.8,5.6l0.1,0.1c1.3-2.1,5.4-7.1,8.1-7.1c0.9,0,1.6,0.3,1.6,1.5
					c0,1.5-2.9,8-2.9,9.2c0,0.2,0.1,0.4,0.3,0.4c0.7,0,2.1-1.6,2.5-2l0.5,0.6c-2.1,2.5-3.6,3.9-5.4,3.9c-0.8,0-1.3-0.5-1.3-1.3
					c0-1.4,2.6-7.8,2.6-8.6c0-0.4-0.2-0.7-0.7-0.7c-1.5,0-4.6,4.5-5.4,6c-1.7,3.1-1.5,4.3-2.5,4.3c-1.4,0-2-0.1-2-0.4
					c0-0.3,0.2-0.7,0.4-1.5L116.9,145.7z"/>
				<path class="st5" d="M131,141.3h3l1.2-4h3l-1.2,4h3.3l-0.3,1.4h-3.4l-2,6.6c-0.1,0.5-0.5,1.5-0.5,1.9c0,0.3,0.2,0.5,0.6,0.5
					c1,0,2.1-1.4,2.9-2.1l0.5,0.6c-1.1,1.2-3.7,4.3-5.8,4.3c-1.3,0-1.6-0.9-1.6-1.6c0-1,0.6-3,1-4.2l1.8-6h-2.9L131,141.3z"/>
				<path class="st5" d="M153.1,141.4c1.1-0.3,2.2-0.5,3.3-0.5c2.4,0,4.5,0.7,4.5,3.6c0,4.4-4.1,10.1-8.8,10.1
					c-0.8,0-1.7-0.3-2.1-0.7l-1.3,5.1l2.3,0.5l-0.1,0.7c-1.2,0.2-3.8,0.5-5.1,0.7l-0.3-0.2c1.4-5.8,2.9-11.6,4.3-17.4
					c-0.8,0.2-2.7,0.9-3.3,1.2l0.2-1.1c0.6-0.3,2.4-1,3.4-1.3l0.9-3.6l3.1-0.9L153.1,141.4z M151.2,149.5c-0.1,0.6-0.5,1.9-0.5,2.5
					c0,1,0.7,1.5,1.7,1.5c3.1,0,5.4-6.5,5.4-9.1c0-1.5-0.8-2.3-2.5-2.3c-1.1,0-1.9,0.1-2.3,0.2L151.2,149.5z"/>
				<path class="st5" d="M164.8,147c0.2-0.7,0.6-2.1,0.6-2.5c0-0.3,0-0.6-0.4-0.6c-0.7,0-1.8,1.1-2.2,1.6l-0.5-0.6
					c1-1.3,3.5-4,5.1-4c0.9,0,1.2,0.5,1.2,1.3c0,1.5-0.9,3.7-1.3,5.1l0.1,0.1c1.1-1.7,3.4-6.5,5.7-6.5c0.8,0,1.2,0.4,1.2,1.1
					c0,0.9-0.4,2.1-1.4,2.1c-0.6,0-0.8-0.2-1.3-0.2c-1.5,0-3.6,3.7-5.1,7.5c-0.4,0.9-0.6,2.1-0.8,2.4c-0.3,0.4-0.6,0.4-1.5,0.4
					c-1.1,0-1.3-0.3-1.3-0.5c0-0.1,0.4-1.6,0.6-2.1L164.8,147z"/>
				<path class="st5" d="M186.6,146.4c0,4.2-3.1,8.1-7.7,8.1c-3.5,0-5.6-2.6-5.6-5.5c0-4.6,3.7-8.1,7.8-8.1
					C184.8,140.9,186.6,143.3,186.6,146.4z M183.4,145c0-1.5-0.3-3-2.3-3c-3.4,0-4.7,5.6-4.7,8.2c0,1.8,0.4,3.2,2.3,3.2
					C182.2,153.4,183.4,147.5,183.4,145z"/>
				<path class="st5" d="M190.7,145.7c0.2-0.6,0.4-1.1,0.4-1.4c0-0.2-0.1-0.4-0.4-0.4c-0.5,0-1.8,1.3-2.2,1.6l-0.5-0.6
					c1.1-1.2,3.4-4.1,5.2-4.1c0.9,0,1.3,0.5,1.3,1.4c0,1.1-1.4,4.4-1.8,5.6l0.1,0.1c1.3-2.1,5.4-7.1,7.8-7.1c0.9,0,1.3,0.5,1.3,1.4
					c0,1.1-1.4,4.4-1.8,5.6l0.1,0.1c1.3-2.1,5.4-7.1,8.1-7.1c0.9,0,1.6,0.3,1.6,1.5c0,1.5-2.9,8-2.9,9.2c0,0.2,0.1,0.4,0.3,0.4
					c0.7,0,2.1-1.6,2.5-2l0.5,0.6c-2.1,2.5-3.6,3.9-5.4,3.9c-0.8,0-1.3-0.5-1.3-1.3c0-1.4,2.6-7.8,2.6-8.6c0-0.4-0.2-0.7-0.6-0.7
					c-1.5,0-4.3,3.7-5.4,6.2c-1.6,3.4-1.4,4.2-2.5,4.2c-1.6,0-1.9-0.2-1.9-0.6c0-0.3,0.3-1.3,0.5-1.6l2.2-6.2c0.1-0.3,0.3-1,0.3-1.3
					s-0.1-0.6-0.5-0.6c-1.5,0-4.6,4.5-5.4,6c-1.7,3.1-1.5,4.3-2.5,4.3c-1.4,0-2-0.1-2-0.4c0-0.3,0.2-0.7,0.4-1.5L190.7,145.7z"/>
				<path class="st5" d="M224.9,146.4c0,4.2-3.1,8.1-7.7,8.1c-3.5,0-5.6-2.6-5.6-5.5c0-4.6,3.7-8.1,7.8-8.1
					C223.1,140.9,224.9,143.3,224.9,146.4z M221.7,145c0-1.5-0.3-3-2.3-3c-3.4,0-4.7,5.6-4.7,8.2c0,1.8,0.4,3.2,2.3,3.2
					C220.5,153.4,221.7,147.5,221.7,145z"/>
			</g>
		</g>
	</g>
</g>
</svg>
