<?xml version="1.0" encoding="utf-8"?>
<!-- Generator: Adobe Illustrator 25.2.1, SVG Export Plug-In . SVG Version: 6.00 Build 0)  -->
<svg version="1.1" xmlns="http://www.w3.org/2000/svg" xmlns:xlink="http://www.w3.org/1999/xlink" x="0px" y="0px"
	 viewBox="0 0 240 240" style="enable-background:new 0 0 240 240;" xml:space="preserve">
<style type="text/css">
	.st0{fill:#78A78E;}
	.st1{fill:#80B19C;}
	.st2{fill:#408A6B;}
	.st3{fill:#00633A;}
	.st4{fill:#FFFFFF;}
	.st5{fill:#E2251D;}
	.st6{fill:none;}
	.st7{enable-background:new    ;}
</style>
<g id="Layer_1">
	<g id="Layer_11">
		<rect y="0" class="st0" width="240" height="240"/>
	</g>
</g>
<g id="Layer_2">
	<g id="Blad_x5F_Distribution_1_">
		<path class="st1" d="M33.2,86.4c0,0,58.8-26.3,103.7-7.7s81.1,53.3,81.1,53.3s-26.8-14-56.4-18.9c-29.6-4.9-49.7-1.4-68.2-7.7
			c-18.5-6.3-22.6-12.1-39.8-8.3c-17.2,3.8-33.2,4.5-33.2,4.5L33.2,86.4z"/>
		<path class="st2" d="M210.7,135.1c0,0-26.6-4.6-58.8,0.6c-32.1,5.2-64.2,10.3-79.7,0.4s-37.2-30.8-41.6-33.5
			c-4.4-2.9,15.2-15.2,30.7-11.7s30.2,16.3,52.4,18c22.3,1.8,48.3,3.6,65.7,9.3c17.4,5.6,39,13.3,43.7,19.3
			C227.9,143.6,210.7,135.1,210.7,135.1z"/>
		<path class="st3" d="M226.9,139.3c0,0-6-11.5-21.1-22.4c-15.1-10.9-34.4-21.6-50.2-27.3c-15.8-5.7-30.8-10.5-46.8-12
			c-16-1.5-28.5-2-47.9,2.7C45,84,39.2,89.9,35.3,92.8C31.3,95.8,28,100,28,100s23.9-17.1,47.9-19c24.9-1.9,36.9,0.9,44.3,2.1
			c7.4,1.2,30.7,7.1,49.1,16.1c17.6,8.6,22.4,12.2,32.1,18.8C210.2,124.2,226.9,139.3,226.9,139.3z"/>
		<path class="st3" d="M16.8,107.4c0,0,9.4-2.2,32.9,14.9c22.6,15.1,42.2,14.9,52.7,15.2c10.5,0.2,39.4-3.8,53.8-6
			c13.9-2.2,26.4-3,39.6-1.8c12.6,1.1,26.8,8.5,26.8,8.5s-17.4-5.2-30.7-5.6c-13.1-0.4-23.6,0.8-48,4.2c-24.4,3.5-34.5,5.1-52.8,3.7
			s-33.5-8.4-42.8-14.8c-9.3-6.3-16.3-12.2-21.9-14.6C20.7,108.8,16.8,107.4,16.8,107.4z"/>
		<g>
			<path class="st4" d="M91.6,105.1c-1.6-5.6-4.3-10.3-13-10.3c-9.5,0-14.5,7.5-14.5,17.7c0,9.7,4.9,19.5,15.9,19.5
				c6.2,0,10.3-3.9,11.9-9.7l1.6,0.3c-0.8,3.1-1.1,6.3-1.5,9.4c-3.4,1.5-8,2.6-13.3,2.6c-13.1,0-22.8-7.2-22.8-21.8
				c0-13,10.5-20.5,22.5-20.5c6.8,0,9,2.1,14.5,2.9c-0.1,3.2,0.1,6.5,0.4,9.7L91.6,105.1z"/>
			<path class="st4" d="M100.2,97.2c0-1.3-0.2-1.8-1.5-2.3c-0.6-0.3-1.3-0.5-1.9-0.8v-1.4c2.6-0.6,6.5-2.1,9.3-3.4l0.6,0.5v40.3
				c0,1.7,1.4,1.8,3,1.8h0.6v1.8c-2.2-0.1-4.4-0.3-6.7-0.3c-2.4,0-4.8,0.1-6.9,0.3v-1.8c1.8,0,3.4,0,3.4-1.8L100.2,97.2L100.2,97.2z
				"/>
			<path class="st4" d="M129.3,115.4c0-3.4-2-4.7-4.6-4.7c-3.4,0-4.2,0.9-4.5,4.1c-0.1,1.6-3.2,2.3-4.1,2.3c-0.6,0-1.1-0.4-1.1-1.3
				c0-2.3,1.4-3.9,3.2-4.9c1.9-1,4.1-2.1,6.3-3.4c1.3-0.8,2.3-0.8,3.5-0.8c5.1,0,7.9,2.7,7.9,7.7v11.9c0,2.5,0.2,4.3,1.8,4.3
				c0.5,0,1.3-0.4,1.6-0.8l0.8,1c-1.7,2.2-3.3,3.7-6.1,3.7s-4.2-1.9-4.4-4.6c-2.5,2.5-5.2,4.6-8.9,4.6c-3.5,0-6.3-2.2-6.3-6
				c0-4.5,3.7-5.9,7.9-7.4l7.2-2.5L129.3,115.4L129.3,115.4z M129.3,120.6c-3.2,1-8.6,2.2-8.6,6.2c0,2.5,1.3,3.8,3.6,3.8
				c2.7,0,4.4-2.2,5-3.1V120.6z"/>
			<path class="st4" d="M165.3,127.3c-2.3,4.1-6.3,7.3-11.2,7.3c-7.3,0-11.3-6.7-11.3-13.4c0-7.3,4.9-14.5,12.9-14.5
				c6,0,9.3,4.4,9.1,10.1l-0.7,0.6h-15.7c0,5.9,2.7,11.8,9,11.8c2.8,0,5.1-1,6.9-3.2L165.3,127.3z M155.3,115.8
				c3.2,0,3.6-0.1,3.6-2.2c0-2.2-1.5-4.8-4.1-4.8c-3.6,0-5.5,3.4-6.2,7H155.3z"/>
			<path class="st4" d="M183.6,114.6c-0.3-3.2-1.5-5.8-5.2-5.8c-2,0-3.9,1.2-3.9,3.5c0,6.3,12,4.9,12,13.7c0,6.3-5.1,8.6-9.9,8.6
				c-2.8,0-4.9-0.8-6.8-1.5l-0.5-6.5l1.6-0.3c0.3,3.2,2.3,6.2,5.7,6.2c2.3,0,4.4-1.3,4.4-3.8c0-5.6-11.7-4.6-11.7-13.6
				c0-5.1,3.9-8.3,9.3-8.3c2.6,0,4.6,0.6,6.8,1.4c-0.2,2.1-0.3,4.1-0.1,6.2L183.6,114.6z"/>
		</g>
		<g>
			<rect x="54.5" y="57.5" class="st5" width="0.7" height="124"/>
		</g>
		<g>
			<rect x="0" y="134.4" class="st5" width="240.1" height="0.7"/>
		</g>
	</g>
</g>
<g id="Layer_3">
	<g id="Distr_x5F_Nieuwigheden">
		<g>
			<g>
				<rect x="32.5" y="133.7" class="st6" width="193" height="35.1"/>
				<g class="st7">
					<path class="st3" d="M37.7,139.1l-0.6-0.9c-0.8-1.3-1.2-1.8-2.6-1.8l0.1-0.9c1,0,1.9,0.1,2.9,0.1c0.8,0,1.5-0.1,2.3-0.1
						c0.4,0.7,0.8,1.4,1.3,2.1l8.8,13.4l1.7-10.7c0.3-1.7,0.3-2.1,0.3-2.5c0-1.3-1.1-1.5-2.5-1.5l0.1-0.9c1.2,0,2.3,0.1,3.5,0.1
						c1.1,0,2.3-0.1,3.5-0.1l-0.1,0.9c-2.2,0-2.6,0.4-3.1,3.1L51,152.7l0.6,1c0.5,0.7,1,1,1.5,1l-0.1,0.9c-0.8,0-1.5-0.1-2.3-0.1
						s-1.5,0.1-2.3,0.1c-0.6-1.1-1.2-2.1-1.9-3.1l-7.7-11.8l-1.9,11c-0.1,0.5-0.2,1.2-0.2,1.9c0,0.7,0.5,1.2,1.9,1.2h0.6l-0.1,0.9
						c-1.1,0-2.2-0.1-3.3-0.1c-1.2,0-2.4,0.1-3.6,0.1l0.1-0.9h0.2c1.5,0,2.3-0.3,2.8-2.8L37.7,139.1z"/>
					<path class="st3" d="M62.9,152c-2.1,2.5-3.6,3.9-5.5,3.9c-0.8,0-1.3-0.5-1.3-1.3c0-1.4,2.6-7.9,2.6-8.8c0-0.3-0.1-0.7-0.4-0.7
						c-0.7,0-1.6,1.3-2.2,1.8l-0.6-0.7c1.1-1.3,3.6-3.9,5.3-3.9c0.9,0,1.6,0.3,1.6,1.5c0,1.5-2.9,8.1-2.9,9.2c0,0.2,0.1,0.4,0.3,0.4
						c0.7,0,2.1-1.6,2.5-2L62.9,152z M61.8,135.1c0.9,0,1.8,0.8,1.8,1.8c0,0.9-0.8,1.8-1.8,1.8s-1.8-0.8-1.8-1.8
						C60,136,60.9,135.1,61.8,135.1z"/>
					<path class="st3" d="M75.3,152.4c-1.8,1.7-3.9,3.5-6.9,3.5c-2.7,0-3.7-2.1-3.7-4.4c0-4.5,4.2-9.3,8.6-9.3c1.6,0,3,0.7,3,2.5
						c0,3.5-5.5,4.8-8.3,5.2c-0.1,0.3-0.2,0.9-0.2,1.6c0,1.3,0.8,2.5,2.2,2.5c1.9,0,3.6-1.3,4.7-2.2L75.3,152.4z M72.2,143.3
						c-1.7,0-3.6,3.7-3.9,5.5c2-0.1,5-1.8,5-4.3C73.2,143.7,72.9,143.3,72.2,143.3z"/>
					<path class="st3" d="M89.3,151.1c-0.3,0.8-0.4,1.5-0.4,1.7c0,0.4,0.1,0.6,0.3,0.6c0.7,0,2.1-1.6,2.5-2l0.5,0.6
						c-2,2.2-3.7,3.9-5.2,3.9c-1,0-1.4-0.7-1.4-1.3c0-0.5,0.2-1.7,2.1-7l-0.1-0.1c-1.5,2.4-5,8.4-8.4,8.4c-1.2,0-1.4-0.9-1.4-1.6
						c0-1.4,2.5-8,2.5-8.7c0-0.2-0.1-0.4-0.4-0.4c-0.5,0-1.8,1.3-2.2,1.6l-0.5-0.6c1.1-1.2,3.5-4.1,5.3-4.1c0.9,0,1.3,0.5,1.3,1.4
						c0,2.1-2.7,7.7-2.7,8.9c0,0.3,0.2,0.5,0.5,0.5c1.3,0,4.4-4.7,4.9-5.5c1.9-2.9,2.5-5.3,3.1-5.3c0.2,0,0.5,0.1,0.7,0.2l1.4,0.6
						L89.3,151.1z"/>
					<path class="st3" d="M93.3,146.2c1.1-1.1,3.5-4,5.4-4c0.9,0,1.3,0.5,1.3,1.5c0,1.6-2.3,6.8-2.3,8.9c0,0.4,0.2,0.7,0.5,0.7
						c1.3,0,4.1-2.8,5.2-4.3c0.5-1.7,1.3-6.8,3.7-6.8c0.9,0,1.3,0.7,1.3,1.5c0,1.3-0.7,2.2-1.4,3.2c-0.5,0.7-1.4,4.3-1.4,5.7
						c0,0.7,0.4,1.3,1.3,1.3c2.7,0,5.3-4.4,5.3-7.3c0-0.8-0.1-1.7-0.1-2.6c0-1,0.6-1.7,1.5-1.7c1,0,1.7,0.6,1.7,1.7
						c0,3.5-5.3,12-10.5,12c-1.4,0-2.2-0.8-2.2-2.3c0-0.9,0.2-1.9,0.5-2.7l-0.1-0.1c-1.3,1.7-4.6,5-6.9,5c-1,0-1.6-0.7-1.6-2.2
						c0-1.9,2-7.3,2-8c0-0.3-0.1-0.5-0.4-0.5c-0.7,0-1.6,1.2-2.2,1.6L93.3,146.2z"/>
					<path class="st3" d="M123.2,152c-2.1,2.5-3.6,3.9-5.5,3.9c-0.8,0-1.3-0.5-1.3-1.3c0-1.4,2.6-7.9,2.6-8.8c0-0.3-0.1-0.7-0.4-0.7
						c-0.7,0-1.6,1.3-2.2,1.8l-0.6-0.7c1.1-1.3,3.6-3.9,5.3-3.9c0.9,0,1.6,0.3,1.6,1.5c0,1.5-2.9,8.1-2.9,9.2c0,0.2,0.1,0.4,0.3,0.4
						c0.7,0,2.1-1.6,2.5-2L123.2,152z M122.1,135.1c0.9,0,1.8,0.8,1.8,1.8c0,0.9-0.8,1.8-1.8,1.8c-0.9,0-1.8-0.8-1.8-1.8
						C120.4,136,121.2,135.1,122.1,135.1z"/>
					<path class="st3" d="M133.9,154.7c1.5,0.7,2.5,1.5,2.5,3c0,3.7-4.7,4.5-7.5,4.5c-1.9,0-5.7-0.7-5.7-3.2c0-2.2,2.4-2.9,4.5-3.9
						c-0.8-0.3-1.7-0.7-1.7-1.6c0-1.4,1.6-2,2.4-2.7c-1.5-0.6-2.4-1.9-2.4-3.5c0-3.3,2.7-5.1,5.9-5.1c1,0,1.8,0.2,2.5,0.5
						c0.7,0.2,1.4,0.5,2.2,0.5c0.9,0,1.2-0.4,1.7-0.4c0.4,0,0.9,0.2,0.9,1c0,0.7-0.3,1.1-0.9,1.1c-0.9,0-1.2-0.8-2.3-0.8
						c0.4,0.5,0.8,1.3,0.8,2.2c0,3.2-2.6,5.1-5.7,5.1c-0.6,0-1.1-0.1-1.7-0.1c-0.2,0.1-0.6,0.6-0.6,0.9c0,0.3,0.1,0.5,1.7,1.1
						L133.9,154.7z M128.5,155.6l-0.9,0.6c-0.7,0.5-1.9,1.2-1.9,2.5c0,2,2.6,2.5,3.8,2.5c1.6,0,4-0.5,4-2.3c0-1.2-1.1-1.6-2.8-2.4
						L128.5,155.6z M130.7,150.2c2.1,0,3-3,3-4.7c0-1.2-0.2-2.2-1.8-2.2c-2.2,0-2.9,3.5-2.9,4.9C129,149.4,129.6,150.2,130.7,150.2z
						"/>
					<path class="st3" d="M143.6,148.6L143.6,148.6c1.5-2.1,4.8-6.4,7.8-6.4c1.7,0,2.1,0.9,2.1,2.6c-0.1,5.3-4.8,10.9-6.9,10.9
						c-0.7,0-0.9-0.4-0.9-0.6c0-0.2,0.4-1.7,0.7-2.4l2.3,0.2c0.5-1.3,1.8-4.4,1.8-7.3c0-0.7,0-1.3-0.7-1.3c-1.7,0-5.7,4.6-6.8,7.9
						c-0.2,0.7-0.7,2.3-0.8,2.7c-0.1,0.6-0.7,0.6-1.2,0.6c-1.5,0-1.5-0.2-1.5-0.7c0-0.4,1.4-5.8,2.2-9.1l2.3-9.7l-1.7-0.8l0.2-0.6
						c1.2-0.1,3.6-0.5,5-1l0.3,0.3L143.6,148.6z"/>
					<path class="st3" d="M165.8,152.4c-1.8,1.7-3.9,3.5-6.9,3.5c-2.7,0-3.7-2.1-3.7-4.4c0-4.5,4.2-9.3,8.6-9.3c1.6,0,3,0.7,3,2.5
						c0,3.5-5.5,4.8-8.3,5.2c-0.1,0.3-0.2,0.9-0.2,1.6c0,1.3,0.8,2.5,2.2,2.5c1.9,0,3.6-1.3,4.7-2.2L165.8,152.4z M162.7,143.3
						c-1.7,0-3.6,3.7-3.9,5.5c2-0.1,5-1.8,5-4.3C163.7,143.7,163.4,143.3,162.7,143.3z"/>
					<path class="st3" d="M180.3,136.1l-1.9-0.9l0.1-0.5c1.6-0.1,3.8-0.6,5.1-1l0.3,0.2l-4.1,17.6c-0.1,0.3-0.2,0.9-0.2,1.2
						c0,0.3,0.1,0.5,0.4,0.5c0.6,0,2-1.5,2.5-2l0.5,0.7c-1.2,1.3-3.4,4.2-5.3,4.2c-1,0-1.3-0.6-1.3-1.4c0-0.6,0.3-1.7,0.6-3H177
						c-1.2,2-3.7,4.4-6.2,4.4c-2,0-3-1.5-3-3.7c0-3.9,4.8-9.9,9.1-9.9c0.7,0,1.4,0.1,2.1,0.5L180.3,136.1z M172.5,153.8
						c3.2,0,5.8-5.5,5.8-8.6c0-1.3-0.3-1.9-1.6-1.9c-3.1,0-5.7,5.9-5.7,8.5C171,153,171.3,153.8,172.5,153.8z"/>
					<path class="st3" d="M194.9,152.4c-1.8,1.7-3.9,3.5-6.9,3.5c-2.7,0-3.7-2.1-3.7-4.4c0-4.5,4.2-9.3,8.6-9.3c1.6,0,3,0.7,3,2.5
						c0,3.5-5.5,4.8-8.3,5.2c-0.1,0.3-0.2,0.9-0.2,1.6c0,1.3,0.8,2.5,2.2,2.5c1.9,0,3.6-1.3,4.7-2.2L194.9,152.4z M191.8,143.3
						c-1.7,0-3.6,3.7-3.9,5.5c2-0.1,5-1.8,5-4.3C192.8,143.7,192.5,143.3,191.8,143.3z"/>
					<path class="st3" d="M199.7,147.1c0.2-0.6,0.4-1.1,0.4-1.4c0-0.2-0.1-0.4-0.4-0.4c-0.5,0-1.8,1.3-2.2,1.6l-0.5-0.6
						c1.1-1.2,3.4-4.1,5.2-4.1c0.9,0,1.3,0.5,1.3,1.4c0,1.1-1.4,4.5-1.8,5.7l0.1,0.1c1.3-2.1,5.4-7.1,8.1-7.1c0.9,0,1.6,0.3,1.6,1.5
						c0,1.5-2.9,8.1-2.9,9.2c0,0.2,0.1,0.4,0.3,0.4c0.7,0,2.1-1.6,2.5-2l0.5,0.6c-2.1,2.5-3.6,3.9-5.5,3.9c-0.8,0-1.3-0.5-1.3-1.3
						c0-1.4,2.6-7.9,2.6-8.6c0-0.4-0.2-0.7-0.7-0.7c-1.5,0-4.6,4.5-5.4,6c-1.7,3.1-1.5,4.3-2.5,4.3c-1.4,0-2-0.1-2-0.4
						c0-0.3,0.2-0.7,0.4-1.5L199.7,147.1z"/>
				</g>
			</g>
			<g>
				<rect x="31.8" y="132.4" class="st6" width="193" height="35.1"/>
				<g class="st7">
					<path class="st5" d="M37,137.8l-0.6-0.9c-0.8-1.3-1.2-1.8-2.6-1.8l0.1-0.9c1,0,1.9,0.1,2.9,0.1c0.8,0,1.5-0.1,2.3-0.1
						c0.4,0.7,0.8,1.4,1.3,2.1l8.8,13.4l1.7-10.7c0.3-1.7,0.3-2.1,0.3-2.5c0-1.3-1.1-1.5-2.5-1.5l0.1-0.9c1.2,0,2.3,0.1,3.5,0.1
						c1.1,0,2.3-0.1,3.5-0.1l-0.1,0.9c-2.2,0-2.6,0.4-3.1,3.1l-2.4,13.1l0.6,1c0.5,0.7,1,1,1.5,1l-0.1,0.9c-0.8,0-1.5-0.1-2.3-0.1
						s-1.5,0.1-2.3,0.1c-0.6-1.1-1.2-2.1-1.9-3.1l-7.7-11.8l-1.9,11c-0.1,0.5-0.2,1.2-0.2,1.9c0,0.7,0.5,1.2,1.9,1.2h0.6l-0.1,0.9
						c-1.1,0-2.2-0.1-3.3-0.1c-1.2,0-2.4,0.1-3.6,0.1l0.1-0.9h0.2c1.5,0,2.3-0.3,2.8-2.8L37,137.8z"/>
					<path class="st5" d="M62.2,150.7c-2.1,2.5-3.6,3.9-5.5,3.9c-0.8,0-1.3-0.5-1.3-1.3c0-1.4,2.6-7.9,2.6-8.8
						c0-0.3-0.1-0.7-0.4-0.7c-0.7,0-1.6,1.3-2.2,1.8l-0.6-0.7c1.1-1.3,3.6-3.9,5.3-3.9c0.9,0,1.6,0.3,1.6,1.5c0,1.5-2.9,8.1-2.9,9.2
						c0,0.2,0.1,0.4,0.3,0.4c0.7,0,2.1-1.6,2.5-2L62.2,150.7z M61.1,133.8c0.9,0,1.8,0.8,1.8,1.8c0,0.9-0.8,1.8-1.8,1.8
						c-0.9,0-1.8-0.8-1.8-1.8C59.3,134.7,60.1,133.8,61.1,133.8z"/>
					<path class="st5" d="M74.6,151.1c-1.8,1.7-3.9,3.5-6.9,3.5c-2.7,0-3.7-2.1-3.7-4.4c0-4.5,4.2-9.3,8.6-9.3c1.6,0,3,0.7,3,2.5
						c0,3.5-5.5,4.8-8.3,5.2c-0.1,0.3-0.2,0.9-0.2,1.6c0,1.3,0.8,2.5,2.2,2.5c1.9,0,3.6-1.3,4.7-2.2L74.6,151.1z M71.5,142
						c-1.7,0-3.6,3.7-3.9,5.5c2-0.1,5-1.8,5-4.3C72.5,142.4,72.2,142,71.5,142z"/>
					<path class="st5" d="M88.5,149.8c-0.3,0.8-0.4,1.5-0.4,1.7c0,0.4,0.1,0.6,0.3,0.6c0.7,0,2.1-1.6,2.5-2l0.5,0.6
						c-2,2.2-3.7,3.9-5.2,3.9c-1,0-1.4-0.7-1.4-1.3c0-0.5,0.2-1.7,2.1-7l-0.1-0.1c-1.5,2.4-5,8.4-8.4,8.4c-1.2,0-1.4-0.9-1.4-1.6
						c0-1.4,2.5-8,2.5-8.7c0-0.2-0.1-0.4-0.4-0.4c-0.5,0-1.8,1.3-2.2,1.6l-0.5-0.6c1.1-1.2,3.5-4.1,5.3-4.1c0.9,0,1.3,0.5,1.3,1.4
						c0,2.1-2.7,7.7-2.7,8.9c0,0.3,0.2,0.5,0.5,0.5c1.3,0,4.4-4.7,4.9-5.5c1.9-2.9,2.5-5.3,3.1-5.3c0.2,0,0.5,0.1,0.7,0.2l1.4,0.6
						L88.5,149.8z"/>
					<path class="st5" d="M92.6,144.9c1.1-1.1,3.5-4,5.4-4c0.9,0,1.3,0.5,1.3,1.5c0,1.6-2.3,6.8-2.3,8.9c0,0.4,0.2,0.7,0.5,0.7
						c1.3,0,4.1-2.8,5.2-4.3c0.5-1.7,1.3-6.8,3.7-6.8c0.9,0,1.3,0.7,1.3,1.5c0,1.3-0.7,2.2-1.4,3.2c-0.5,0.7-1.4,4.3-1.4,5.7
						c0,0.7,0.4,1.3,1.3,1.3c2.7,0,5.3-4.4,5.3-7.3c0-0.8-0.1-1.7-0.1-2.6c0-1,0.6-1.7,1.5-1.7c1,0,1.7,0.6,1.7,1.7
						c0,3.5-5.3,12-10.5,12c-1.4,0-2.2-0.8-2.2-2.3c0-0.9,0.2-1.9,0.5-2.7l-0.1-0.1c-1.3,1.7-4.6,5-6.9,5c-1,0-1.6-0.7-1.6-2.2
						c0-1.9,2-7.3,2-8c0-0.3-0.1-0.5-0.4-0.5c-0.7,0-1.6,1.2-2.2,1.6L92.6,144.9z"/>
					<path class="st5" d="M122.5,150.7c-2.1,2.5-3.6,3.9-5.5,3.9c-0.8,0-1.3-0.5-1.3-1.3c0-1.4,2.6-7.9,2.6-8.8
						c0-0.3-0.1-0.7-0.4-0.7c-0.7,0-1.6,1.3-2.2,1.8l-0.6-0.7c1.1-1.3,3.6-3.9,5.3-3.9c0.9,0,1.6,0.3,1.6,1.5c0,1.5-2.9,8.1-2.9,9.2
						c0,0.2,0.1,0.4,0.3,0.4c0.7,0,2.1-1.6,2.5-2L122.5,150.7z M121.4,133.8c0.9,0,1.8,0.8,1.8,1.8c0,0.9-0.8,1.8-1.8,1.8
						c-0.9,0-1.8-0.8-1.8-1.8C119.6,134.7,120.5,133.8,121.4,133.8z"/>
					<path class="st5" d="M133.2,153.4c1.5,0.7,2.5,1.5,2.5,3c0,3.7-4.7,4.5-7.5,4.5c-1.9,0-5.7-0.7-5.7-3.2c0-2.2,2.4-2.9,4.5-3.9
						c-0.8-0.3-1.7-0.7-1.7-1.6c0-1.4,1.6-2,2.4-2.7c-1.5-0.6-2.4-1.9-2.4-3.5c0-3.3,2.7-5.1,5.9-5.1c1,0,1.8,0.2,2.5,0.5
						c0.7,0.2,1.4,0.5,2.2,0.5c0.9,0,1.2-0.4,1.7-0.4c0.4,0,0.9,0.2,0.9,1c0,0.7-0.3,1.1-0.9,1.1c-0.9,0-1.2-0.8-2.3-0.8
						c0.4,0.5,0.8,1.3,0.8,2.2c0,3.2-2.6,5.1-5.7,5.1c-0.6,0-1.1-0.1-1.7-0.1c-0.2,0.1-0.6,0.6-0.6,0.9c0,0.3,0.1,0.5,1.7,1.1
						L133.2,153.4z M127.8,154.3l-0.9,0.6c-0.7,0.5-1.9,1.2-1.9,2.5c0,2,2.6,2.5,3.8,2.5c1.6,0,4-0.5,4-2.3c0-1.2-1.1-1.6-2.8-2.4
						L127.8,154.3z M130,148.9c2.1,0,3-3,3-4.7c0-1.2-0.2-2.2-1.8-2.2c-2.2,0-2.9,3.5-2.9,4.9C128.3,148.1,128.9,148.9,130,148.9z"
						/>
					<path class="st5" d="M142.9,147.3L142.9,147.3c1.5-2.1,4.8-6.4,7.8-6.4c1.7,0,2.1,0.9,2.1,2.6c-0.1,5.3-4.8,10.9-6.9,10.9
						c-0.7,0-0.9-0.4-0.9-0.6c0-0.2,0.4-1.7,0.7-2.4l2.3,0.2c0.5-1.3,1.8-4.4,1.8-7.3c0-0.7,0-1.3-0.7-1.3c-1.7,0-5.7,4.6-6.8,7.9
						c-0.2,0.7-0.7,2.3-0.8,2.7c-0.1,0.6-0.7,0.6-1.2,0.6c-1.5,0-1.5-0.2-1.5-0.7c0-0.4,1.4-5.8,2.2-9.1l2.3-9.7l-1.7-0.8l0.2-0.6
						c1.2-0.1,3.6-0.5,5-1l0.3,0.3L142.9,147.3z"/>
					<path class="st5" d="M165.1,151.1c-1.8,1.7-3.9,3.5-6.9,3.5c-2.7,0-3.7-2.1-3.7-4.4c0-4.5,4.2-9.3,8.6-9.3c1.6,0,3,0.7,3,2.5
						c0,3.5-5.5,4.8-8.3,5.2c-0.1,0.3-0.2,0.9-0.2,1.6c0,1.3,0.8,2.5,2.2,2.5c1.9,0,3.6-1.3,4.7-2.2L165.1,151.1z M162,142
						c-1.7,0-3.6,3.7-3.9,5.5c2-0.1,5-1.8,5-4.3C163,142.4,162.7,142,162,142z"/>
					<path class="st5" d="M179.6,134.8l-1.9-0.9l0.1-0.5c1.6-0.1,3.8-0.6,5.1-1l0.3,0.2l-4.1,17.6c-0.1,0.3-0.2,0.9-0.2,1.2
						c0,0.3,0.1,0.5,0.4,0.5c0.6,0,2-1.5,2.5-2l0.5,0.7c-1.2,1.3-3.4,4.2-5.3,4.2c-1,0-1.3-0.6-1.3-1.4c0-0.6,0.3-1.7,0.6-3h-0.1
						c-1.2,2-3.7,4.4-6.2,4.4c-2,0-3-1.5-3-3.7c0-3.9,4.8-9.9,9.1-9.9c0.7,0,1.4,0.1,2.1,0.5L179.6,134.8z M171.8,152.5
						c3.2,0,5.8-5.5,5.8-8.6c0-1.3-0.3-1.9-1.6-1.9c-3.1,0-5.7,5.9-5.7,8.5C170.3,151.7,170.6,152.5,171.8,152.5z"/>
					<path class="st5" d="M194.2,151.1c-1.8,1.7-3.9,3.5-6.9,3.5c-2.7,0-3.7-2.1-3.7-4.4c0-4.5,4.2-9.3,8.6-9.3c1.6,0,3,0.7,3,2.5
						c0,3.5-5.5,4.8-8.3,5.2c-0.1,0.3-0.2,0.9-0.2,1.6c0,1.3,0.8,2.5,2.2,2.5c1.9,0,3.6-1.3,4.7-2.2L194.2,151.1z M191,142
						c-1.7,0-3.6,3.7-3.9,5.5c2-0.1,5-1.8,5-4.3C192.1,142.4,191.8,142,191,142z"/>
					<path class="st5" d="M198.9,145.8c0.2-0.6,0.4-1.1,0.4-1.4c0-0.2-0.1-0.4-0.4-0.4c-0.5,0-1.8,1.3-2.2,1.6l-0.5-0.6
						c1.1-1.2,3.4-4.1,5.2-4.1c0.9,0,1.3,0.5,1.3,1.4c0,1.1-1.4,4.5-1.8,5.7l0.1,0.1c1.3-2.1,5.4-7.1,8.1-7.1c0.9,0,1.6,0.3,1.6,1.5
						c0,1.5-2.9,8.1-2.9,9.2c0,0.2,0.1,0.4,0.3,0.4c0.7,0,2.1-1.6,2.5-2l0.5,0.6c-2.1,2.5-3.6,3.9-5.5,3.9c-0.8,0-1.3-0.5-1.3-1.3
						c0-1.4,2.6-7.9,2.6-8.6c0-0.4-0.2-0.7-0.7-0.7c-1.5,0-4.6,4.5-5.4,6c-1.7,3.1-1.5,4.3-2.5,4.3c-1.4,0-2-0.1-2-0.4
						c0-0.3,0.2-0.7,0.4-1.5L198.9,145.8z"/>
				</g>
			</g>
		</g>
	</g>
</g>
</svg>
