<?xml version="1.0" encoding="utf-8"?>
<!-- Generator: Adobe Illustrator 23.0.1, SVG Export Plug-In . SVG Version: 6.00 Build 0)  -->
<svg version="1.1" xmlns="http://www.w3.org/2000/svg" xmlns:xlink="http://www.w3.org/1999/xlink" x="0px" y="0px"
	 viewBox="0 0 240 240" style="enable-background:new 0 0 240 240;" xml:space="preserve">
<style type="text/css">
	.st0{fill:#78A78E;}
	.st1{fill:#80B19C;}
	.st2{fill:#408A6B;}
	.st3{fill:#00633A;}
	.st4{fill:#FFFFFF;}
	.st5{fill:#E2251D;}
</style>
<g id="Layer_11">
	<rect x="0" y="0" class="st0" width="240" height="240"/>
</g>
<g id="Blad_x5F_Distribution">
	<path class="st1" d="M33.2,86.4c0,0,58.7-26.2,103.6-7.7c44.9,18.6,81,53.3,81,53.3s-26.8-14-56.3-18.9
		c-29.5-4.9-49.6-1.4-68.1-7.8C74.9,99,70.8,93.3,53.6,97.1c-17.2,3.8-33.2,4.5-33.2,4.5L33.2,86.4z"/>
	<path class="st2" d="M210.5,135c0,0-26.6-4.6-58.7,0.6c-32.1,5.2-64.1,10.3-79.6,0.5c-15.5-9.9-37.1-30.7-41.5-33.5
		c-4.4-2.8,15.2-15.2,30.7-11.6c15.5,3.6,30.1,16.2,52.3,18c22.2,1.7,48.2,3.6,65.6,9.3c17.4,5.7,39,13.2,43.6,19.3
		C227.5,143.6,210.5,135,210.5,135z"/>
	<path class="st3" d="M226.6,139.2c0,0-6-11.5-21.1-22.4c-15.1-10.9-34.3-21.5-50.1-27.2c-15.8-5.7-30.8-10.4-46.7-12
		c-16-1.5-28.4-2-47.8,2.6C45,84,39.2,89.9,35.2,92.8C31.3,95.8,28,100,28,100s23.9-17.1,47.8-18.9c24.8-1.9,36.9,0.9,44.3,2.1
		c7.4,1.2,30.7,7.1,49,16.1c17.6,8.6,22.4,12.1,32.1,18.8C209.9,124.1,226.6,139.2,226.6,139.2z"/>
	<path class="st3" d="M16.7,107.4c0,0,9.5-2.2,32.8,14.9c22.6,15.1,42.2,14.9,52.7,15.1c10.5,0.2,39.3-3.8,53.7-6
		c13.9-2.1,26.4-3,39.6-1.8c12.5,1.1,26.7,8.5,26.7,8.5s-17.4-5.2-30.6-5.6c-13.1-0.4-23.5,0.8-47.9,4.2
		c-24.4,3.5-34.5,5.1-52.8,3.7c-18.3-1.3-33.5-8.4-42.8-14.8c-9.3-6.3-16.3-12.2-21.9-14.6C20.7,108.7,16.7,107.4,16.7,107.4z"/>
	<g>
		<path class="st4" d="M91.5,105.1c-1.6-5.6-4.3-10.3-13-10.3c-9.5,0-14.5,7.5-14.5,17.6c0,9.7,4.9,19.5,15.9,19.5
			c6.2,0,10.3-3.9,11.8-9.7l1.6,0.2c-0.8,3.1-1.2,6.3-1.5,9.4c-3.4,1.5-8,2.6-13.3,2.6c-13.1,0-22.7-7.1-22.7-21.7
			c0-13,10.5-20.5,22.5-20.5c6.8,0,9,2.1,14.4,2.9c-0.1,3.2,0.1,6.4,0.5,9.7L91.5,105.1z"/>
		<path class="st4" d="M100.1,97.2c0-1.3-0.2-1.8-1.5-2.3c-0.6-0.2-1.3-0.5-1.9-0.8v-1.4c2.6-0.6,6.4-2.1,9.3-3.4l0.6,0.5v40.3
			c0,1.7,1.4,1.8,3,1.8h0.6v1.7c-2.2-0.1-4.4-0.2-6.7-0.2c-2.4,0-4.8,0.1-6.9,0.2v-1.7c1.9,0,3.4,0,3.4-1.8V97.2z"/>
		<path class="st4" d="M129.2,115.4c0-3.4-2-4.7-4.6-4.7c-3.4,0-4.2,0.9-4.5,4.1c-0.1,1.6-3.3,2.3-4.1,2.3c-0.6,0-1.1-0.5-1.1-1.3
			c0-2.3,1.4-3.9,3.2-4.9c1.9-1,4.1-2.1,6.3-3.4c1.3-0.8,2.3-0.8,3.5-0.8c5.1,0,7.8,2.7,7.8,7.7v11.8c0,2.5,0.2,4.3,1.8,4.3
			c0.5,0,1.3-0.4,1.6-0.8l0.8,1c-1.7,2.1-3.3,3.7-6.1,3.7c-2.8,0-4.2-1.9-4.4-4.6c-2.6,2.5-5.2,4.6-8.9,4.6c-3.5,0-6.3-2.1-6.3-6
			c0-4.5,3.7-5.9,7.8-7.4l7.2-2.5V115.4z M129.2,120.6c-3.2,1-8.5,2.1-8.5,6.2c0,2.5,1.3,3.8,3.5,3.8c2.7,0,4.4-2.2,5-3.1V120.6z"/>
		<path class="st4" d="M165.1,127.3c-2.3,4.1-6.3,7.3-11.1,7.3c-7.3,0-11.3-6.7-11.3-13.3c0-7.3,4.9-14.5,12.8-14.5
			c6,0,9.2,4.4,9.1,10.2l-0.7,0.6h-15.7c0,5.9,2.7,11.8,9,11.8c2.8,0,5-1,6.9-3.1L165.1,127.3z M155,115.8c3.1,0,3.6-0.1,3.6-2.1
			c0-2.2-1.5-4.8-4.1-4.8c-3.5,0-5.5,3.4-6.2,7H155z"/>
		<path class="st4" d="M183.4,114.6c-0.3-3.3-1.5-5.7-5.2-5.7c-2,0-3.9,1.2-3.9,3.5c0,6.3,12,4.9,12,13.7c0,6.3-5,8.5-9.9,8.5
			c-2.8,0-4.9-0.8-6.8-1.5l-0.5-6.4l1.6-0.3c0.3,3.2,2.3,6.2,5.7,6.2c2.3,0,4.4-1.3,4.4-3.8c0-5.6-11.7-4.6-11.7-13.6
			c0-5.1,3.9-8.3,9.3-8.3c2.6,0,4.6,0.6,6.8,1.4c-0.2,2.1-0.3,4.1-0.1,6.2L183.4,114.6z"/>
	</g>
	<g>
		<rect x="54.5" y="57.6" class="st5" width="0.7" height="123.9"/>
	</g>
	<g>
		<rect x="0.1" y="134.3" class="st5" width="239.7" height="0.7"/>
	</g>
</g>
<g id="Distr_x5F_Promofolder">
	<g>
		<g>
			<path class="st3" d="M38.3,155.3c1.7,0,2.4-0.1,2.7-1.8l2.4-13c0.1-0.7,0.3-1.5,0.3-1.9c0-1-0.6-1.4-2.6-1.4l0.1-0.9
				c1.2,0,2.4,0.1,3.6,0.1c1.4,0,3.5-0.1,5.3-0.1c2.6,0,5.8,0.9,5.8,4.6c0,4-3.8,6-6.7,6c-0.9,0-1.8-0.1-2.3-0.1l0.2-1.1
				c0.3,0.1,0.7,0.1,1.3,0.1c2.4,0,3.5-2.7,3.5-4.9c0-2.3-1-3.5-2.9-3.5c-0.5,0-0.9,0.1-1.5,0.1l-2.8,15.2c-0.1,0.4-0.2,0.8-0.2,1.5
				c0,0.8,0.6,1.1,2.2,1.1h0.5l-0.1,0.9c-1.7,0-3.3-0.1-5-0.1c-1.4,0-2.8,0.1-4.1,0.1L38.3,155.3z"/>
			<path class="st3" d="M58.3,149c0.2-0.7,0.6-2.1,0.6-2.5c0-0.3,0-0.6-0.4-0.6c-0.7,0-1.8,1.1-2.2,1.6l-0.5-0.6c1-1.3,3.5-4,5.1-4
				c0.9,0,1.2,0.5,1.2,1.3c0,1.5-0.9,3.7-1.3,5.1l0.1,0.1c1.1-1.7,3.4-6.5,5.7-6.5c0.8,0,1.2,0.4,1.2,1.1c0,0.9-0.4,2.1-1.4,2.1
				c-0.6,0-0.8-0.2-1.3-0.2c-1.5,0-3.6,3.7-5.1,7.5c-0.4,0.9-0.6,2.1-0.8,2.4c-0.3,0.4-0.6,0.4-1.5,0.4c-1.1,0-1.3-0.3-1.3-0.5
				c0-0.1,0.4-1.6,0.6-2.1L58.3,149z"/>
			<path class="st3" d="M80,148.4c0,4.2-3.1,8.1-7.7,8.1c-3.5,0-5.6-2.6-5.6-5.5c0-4.6,3.7-8.1,7.8-8.1
				C78.3,142.9,80,145.4,80,148.4z M76.9,147c0-1.5-0.3-3-2.3-3c-3.4,0-4.7,5.6-4.7,8.2c0,1.8,0.4,3.2,2.3,3.2
				C75.6,155.5,76.9,149.5,76.9,147z"/>
			<path class="st3" d="M84.1,147.7c0.2-0.6,0.4-1.1,0.4-1.4c0-0.2-0.1-0.4-0.4-0.4c-0.5,0-1.8,1.3-2.2,1.6l-0.5-0.6
				c1.1-1.2,3.4-4.1,5.2-4.1c0.9,0,1.3,0.5,1.3,1.4c0,1.1-1.4,4.4-1.8,5.6l0.1,0.1c1.3-2.1,5.4-7.1,7.8-7.1c0.9,0,1.3,0.5,1.3,1.4
				c0,1.1-1.4,4.4-1.8,5.6l0.1,0.1c1.3-2.1,5.4-7.1,8.1-7.1c0.9,0,1.6,0.3,1.6,1.5c0,1.5-2.9,8-2.9,9.2c0,0.2,0.1,0.4,0.3,0.4
				c0.7,0,2.1-1.6,2.5-2l0.5,0.6c-2.1,2.5-3.6,3.9-5.4,3.9c-0.8,0-1.3-0.5-1.3-1.3c0-1.4,2.6-7.8,2.6-8.6c0-0.4-0.2-0.7-0.6-0.7
				c-1.5,0-4.3,3.7-5.4,6.2c-1.6,3.4-1.4,4.2-2.5,4.2c-1.6,0-1.9-0.2-1.9-0.6c0-0.3,0.3-1.3,0.5-1.6l2.2-6.2c0.1-0.3,0.3-1,0.3-1.3
				s-0.1-0.6-0.5-0.6c-1.5,0-4.6,4.5-5.4,6c-1.7,3.1-1.5,4.3-2.5,4.3c-1.4,0-2-0.1-2-0.4c0-0.3,0.2-0.7,0.4-1.5L84.1,147.7z"/>
			<path class="st3" d="M118.3,148.4c0,4.2-3.1,8.1-7.7,8.1c-3.5,0-5.6-2.6-5.6-5.5c0-4.6,3.7-8.1,7.8-8.1
				C116.6,142.9,118.3,145.4,118.3,148.4z M115.2,147c0-1.5-0.3-3-2.3-3c-3.4,0-4.7,5.6-4.7,8.2c0,1.8,0.4,3.2,2.3,3.2
				C113.9,155.5,115.2,149.5,115.2,147z"/>
			<path class="st3" d="M123,144.8h-2.8l0.3-1.4h2.8c0.9-5.6,4.5-9,8-9c0.7,0,1.3,0.4,1.3,1.1c0,0.9-0.2,1.9-1.1,1.9
				c-0.5,0-0.8-0.2-1.2-0.5c-0.4-0.2-0.8-0.5-1.4-0.5c-1.3,0-1.5,1.7-1.8,3.4l-0.6,3.5h3.3l-0.3,1.4h-3.3c-1.2,6-3.1,11.7-4.8,17.4
				l-1.9,0.7l-0.3-0.2L123,144.8z"/>
			<path class="st3" d="M142.4,148.4c0,4.2-3.1,8.1-7.7,8.1c-3.5,0-5.6-2.6-5.6-5.5c0-4.6,3.7-8.1,7.8-8.1
				C140.6,142.9,142.4,145.4,142.4,148.4z M139.2,147c0-1.5-0.3-3-2.3-3c-3.4,0-4.7,5.6-4.7,8.2c0,1.8,0.4,3.2,2.3,3.2
				C138,155.5,139.2,149.5,139.2,147z"/>
			<path class="st3" d="M148.5,136.8l-1.8-0.9l0.1-0.5c1.5-0.1,3.9-0.6,5-1l0.3,0.3c-0.5,1.7-1.3,4.4-1.8,6.6l-2.7,10.9
				c-0.1,0.5-0.3,1.1-0.3,1.4c0,0.3,0.1,0.5,0.4,0.5c0.6,0,1.6-1,2.6-2.1l0.5,0.6c-2.9,3.2-4,4.1-5.4,4.1c-1.2,0-1.4-0.8-1.4-1.6
				c0-0.7,0.4-2.3,0.7-3.7L148.5,136.8z"/>
			<path class="st3" d="M164.3,136.8l-1.9-0.9l0.1-0.5c1.6-0.1,3.8-0.6,5-1l0.3,0.2l-4.1,17.5c-0.1,0.3-0.2,0.9-0.2,1.2
				c0,0.3,0.1,0.5,0.4,0.5c0.6,0,2-1.5,2.5-2l0.5,0.7c-1.2,1.3-3.4,4.2-5.3,4.2c-1,0-1.3-0.6-1.3-1.4c0-0.6,0.3-1.7,0.6-3h-0.1
				c-1.2,2-3.6,4.4-6.2,4.4c-2,0-3-1.5-3-3.7c0-3.9,4.8-9.9,9.1-9.9c0.7,0,1.4,0.1,2.1,0.5L164.3,136.8z M156.5,154.4
				c3.2,0,5.8-5.5,5.8-8.5c0-1.3-0.3-1.9-1.6-1.9c-3.1,0-5.7,5.9-5.7,8.5C155,153.7,155.2,154.4,156.5,154.4z"/>
			<path class="st3" d="M178.4,153.1c-1.8,1.7-3.9,3.5-6.9,3.5c-2.6,0-3.7-2.1-3.7-4.4c0-4.5,4.2-9.3,8.6-9.3c1.6,0,3,0.7,3,2.5
				c0,3.4-5.5,4.8-8.3,5.2c-0.1,0.3-0.2,0.9-0.2,1.6c0,1.3,0.8,2.5,2.2,2.5c1.9,0,3.6-1.3,4.7-2.2L178.4,153.1z M175.3,144
				c-1.7,0-3.6,3.7-3.9,5.4c2-0.1,5-1.8,5-4.3C176.4,144.4,176,144,175.3,144z"/>
			<path class="st3" d="M182.6,149c0.2-0.7,0.6-2.1,0.6-2.5c0-0.3,0-0.6-0.4-0.6c-0.7,0-1.8,1.1-2.2,1.6l-0.5-0.6c1-1.3,3.5-4,5.1-4
				c0.9,0,1.2,0.5,1.2,1.3c0,1.5-0.9,3.7-1.3,5.1l0.1,0.1c1.1-1.7,3.4-6.5,5.7-6.5c0.8,0,1.2,0.4,1.2,1.1c0,0.9-0.4,2.1-1.4,2.1
				c-0.6,0-0.8-0.2-1.3-0.2c-1.5,0-3.6,3.7-5.1,7.5c-0.4,0.9-0.6,2.1-0.8,2.4c-0.3,0.4-0.6,0.4-1.5,0.4c-1.1,0-1.3-0.3-1.3-0.5
				c0-0.1,0.4-1.6,0.6-2.1L182.6,149z"/>
		</g>
		<g>
			<g>
				<path class="st5" d="M37.2,153.2c1.7,0,2.4-0.1,2.7-1.8l2.4-13c0.1-0.7,0.3-1.5,0.3-1.9c0-1-0.6-1.4-2.6-1.4l0.1-0.9
					c1.2,0,2.4,0.1,3.6,0.1c1.4,0,3.5-0.1,5.3-0.1c2.6,0,5.8,0.9,5.8,4.6c0,4-3.8,6-6.7,6c-0.9,0-1.8-0.1-2.3-0.1l0.2-1.1
					c0.3,0.1,0.7,0.1,1.3,0.1c2.4,0,3.5-2.7,3.5-4.9c0-2.3-1-3.5-2.9-3.5c-0.5,0-0.9,0.1-1.5,0.1l-2.8,15.2
					c-0.1,0.4-0.2,0.8-0.2,1.5c0,0.8,0.6,1.1,2.2,1.1h0.5l-0.1,0.9c-1.7,0-3.3-0.1-5-0.1c-1.4,0-2.8,0.1-4.1,0.1L37.2,153.2z"/>
				<path class="st5" d="M57.1,147c0.2-0.7,0.6-2.1,0.6-2.5c0-0.3,0-0.6-0.4-0.6c-0.7,0-1.8,1.1-2.2,1.6l-0.5-0.6c1-1.3,3.5-4,5.1-4
					c0.9,0,1.2,0.5,1.2,1.3c0,1.5-0.9,3.7-1.3,5.1l0.1,0.1c1.1-1.7,3.4-6.5,5.7-6.5c0.8,0,1.2,0.4,1.2,1.1c0,0.9-0.4,2.1-1.4,2.1
					c-0.6,0-0.8-0.2-1.3-0.2c-1.5,0-3.6,3.7-5.1,7.5c-0.4,0.9-0.6,2.1-0.8,2.4c-0.3,0.4-0.6,0.4-1.5,0.4c-1.1,0-1.3-0.3-1.3-0.5
					c0-0.1,0.4-1.6,0.6-2.1L57.1,147z"/>
				<path class="st5" d="M78.9,146.4c0,4.2-3.1,8.1-7.7,8.1c-3.5,0-5.6-2.6-5.6-5.5c0-4.6,3.7-8.1,7.8-8.1
					C77.1,140.9,78.9,143.3,78.9,146.4z M75.7,145c0-1.5-0.3-3-2.3-3c-3.4,0-4.7,5.6-4.7,8.2c0,1.8,0.4,3.2,2.3,3.2
					C74.5,153.4,75.7,147.5,75.7,145z"/>
				<path class="st5" d="M83,145.7c0.2-0.6,0.4-1.1,0.4-1.4c0-0.2-0.1-0.4-0.4-0.4c-0.5,0-1.8,1.3-2.2,1.6l-0.5-0.6
					c1.1-1.2,3.4-4.1,5.2-4.1c0.9,0,1.3,0.5,1.3,1.4c0,1.1-1.4,4.4-1.8,5.6L85,148c1.3-2.1,5.4-7.1,7.8-7.1c0.9,0,1.3,0.5,1.3,1.4
					c0,1.1-1.4,4.4-1.8,5.6l0.1,0.1c1.3-2.1,5.4-7.1,8.1-7.1c0.9,0,1.6,0.3,1.6,1.5c0,1.5-2.9,8-2.9,9.2c0,0.2,0.1,0.4,0.3,0.4
					c0.7,0,2.1-1.6,2.5-2l0.5,0.6c-2.1,2.5-3.6,3.9-5.4,3.9c-0.8,0-1.3-0.5-1.3-1.3c0-1.4,2.6-7.8,2.6-8.6c0-0.4-0.2-0.7-0.6-0.7
					c-1.5,0-4.3,3.7-5.4,6.2c-1.6,3.4-1.4,4.2-2.5,4.2c-1.6,0-1.9-0.2-1.9-0.6c0-0.3,0.3-1.3,0.5-1.6l2.2-6.2c0.1-0.3,0.3-1,0.3-1.3
					s-0.1-0.6-0.5-0.6c-1.5,0-4.6,4.5-5.4,6c-1.7,3.1-1.5,4.3-2.5,4.3c-1.4,0-2-0.1-2-0.4c0-0.3,0.2-0.7,0.4-1.5L83,145.7z"/>
				<path class="st5" d="M117.2,146.4c0,4.2-3.1,8.1-7.7,8.1c-3.5,0-5.6-2.6-5.6-5.5c0-4.6,3.7-8.1,7.8-8.1
					C115.4,140.9,117.2,143.3,117.2,146.4z M114,145c0-1.5-0.3-3-2.3-3c-3.4,0-4.7,5.6-4.7,8.2c0,1.8,0.4,3.2,2.3,3.2
					C112.8,153.4,114,147.5,114,145z"/>
				<path class="st5" d="M121.9,142.7h-2.8l0.3-1.4h2.8c0.9-5.6,4.5-9,8-9c0.7,0,1.3,0.4,1.3,1.1c0,0.9-0.2,1.9-1.1,1.9
					c-0.5,0-0.8-0.2-1.2-0.5c-0.4-0.2-0.8-0.5-1.4-0.5c-1.3,0-1.5,1.7-1.8,3.4l-0.6,3.5h3.3l-0.3,1.4H125c-1.2,6-3.1,11.7-4.8,17.4
					l-1.9,0.7l-0.3-0.2L121.9,142.7z"/>
				<path class="st5" d="M141.3,146.4c0,4.2-3.1,8.1-7.7,8.1c-3.5,0-5.6-2.6-5.6-5.5c0-4.6,3.7-8.1,7.8-8.1
					C139.5,140.9,141.3,143.3,141.3,146.4z M138.1,145c0-1.5-0.3-3-2.3-3c-3.4,0-4.7,5.6-4.7,8.2c0,1.8,0.4,3.2,2.3,3.2
					C136.8,153.4,138.1,147.5,138.1,145z"/>
				<path class="st5" d="M147.3,134.8l-1.8-0.9l0.1-0.5c1.5-0.1,3.9-0.6,5-1l0.3,0.3c-0.5,1.7-1.3,4.4-1.8,6.6l-2.7,10.9
					c-0.1,0.5-0.3,1.1-0.3,1.4c0,0.3,0.1,0.5,0.4,0.5c0.6,0,1.6-1,2.6-2.1l0.5,0.6c-2.9,3.2-4,4.1-5.4,4.1c-1.2,0-1.4-0.8-1.4-1.6
					c0-0.7,0.4-2.3,0.7-3.7L147.3,134.8z"/>
				<path class="st5" d="M163.1,134.7l-1.9-0.9l0.1-0.5c1.6-0.1,3.8-0.6,5-1l0.3,0.2l-4.1,17.5c-0.1,0.3-0.2,0.9-0.2,1.2
					c0,0.3,0.1,0.5,0.4,0.5c0.6,0,2-1.5,2.5-2l0.5,0.7c-1.2,1.3-3.4,4.2-5.3,4.2c-1,0-1.3-0.6-1.3-1.4c0-0.6,0.3-1.7,0.6-3h-0.1
					c-1.2,2-3.6,4.4-6.2,4.4c-2,0-3-1.5-3-3.7c0-3.9,4.8-9.9,9.1-9.9c0.7,0,1.4,0.1,2.1,0.5L163.1,134.7z M155.3,152.4
					c3.2,0,5.8-5.5,5.8-8.5c0-1.3-0.3-1.9-1.6-1.9c-3.1,0-5.7,5.9-5.7,8.5C153.8,151.6,154.1,152.4,155.3,152.4z"/>
				<path class="st5" d="M177.3,151c-1.8,1.7-3.9,3.5-6.9,3.5c-2.6,0-3.7-2.1-3.7-4.4c0-4.5,4.2-9.3,8.6-9.3c1.6,0,3,0.7,3,2.5
					c0,3.4-5.5,4.8-8.3,5.2c-0.1,0.3-0.2,0.9-0.2,1.6c0,1.3,0.8,2.5,2.2,2.5c1.9,0,3.6-1.3,4.7-2.2L177.3,151z M174.2,142
					c-1.7,0-3.6,3.7-3.9,5.4c2-0.1,5-1.8,5-4.3C175.2,142.3,174.9,142,174.2,142z"/>
				<path class="st5" d="M181.5,147c0.2-0.7,0.6-2.1,0.6-2.5c0-0.3,0-0.6-0.4-0.6c-0.7,0-1.8,1.1-2.2,1.6l-0.5-0.6
					c1-1.3,3.5-4,5.1-4c0.9,0,1.2,0.5,1.2,1.3c0,1.5-0.9,3.7-1.3,5.1l0.1,0.1c1.1-1.7,3.4-6.5,5.7-6.5c0.8,0,1.2,0.4,1.2,1.1
					c0,0.9-0.4,2.1-1.4,2.1c-0.6,0-0.8-0.2-1.3-0.2c-1.5,0-3.6,3.7-5.1,7.5c-0.4,0.9-0.6,2.1-0.8,2.4c-0.3,0.4-0.6,0.4-1.5,0.4
					c-1.1,0-1.3-0.3-1.3-0.5c0-0.1,0.4-1.6,0.6-2.1L181.5,147z"/>
			</g>
		</g>
	</g>
</g>
</svg>
