<svg xmlns="http://www.w3.org/2000/svg" 
  xmlns:xlink="http://www.w3.org/1999/xlink" width="300" height="300" viewBox="0 0 300 300">
  <defs>
    <clipPath id="b">
      <rect width="300" height="300"/>
    </clipPath>
  </defs>
  <g id="a" clip-path="url(#b)">
    <g transform="translate(60 -42.5)">
      <path d="M93.322,172.5a30,30,0,1,0,29.989,29.989A29.993,29.993,0,0,0,93.322,172.5ZM81.7,182.389a23.034,23.034,0,0,1,11.623-3.216,23.276,23.276,0,0,1,23.051,20.651c-11.525-8.9-25.157-14.382-34.674-17.435Zm78.294-36.551H127.768l-4.44-13.337H56.656l-4.44,13.337H26.668c-7.363,0-16.668,5.975-16.668,13.321V239.15c0,7.362,9.305,13.337,16.668,13.337H159.993c7.363,0,10.007-5.975,10.007-13.337V159.158c-.016-7.346-2.661-13.321-10.007-13.321Zm-66.671,99.99A43.326,43.326,0,1,1,136.648,202.5a43.332,43.332,0,0,1-43.326,43.326ZM156.646,172.5H143.309V159.158h13.337Z" fill="#e0e0e0"/>
    </g>
    <g transform="translate(22 22)" fill="none" stroke="#e0e0e0" stroke-width="18">
      <circle cx="128" cy="128" r="128" stroke="none"/>
      <circle cx="128" cy="128" r="119" fill="none"/>
    </g>
    <line y1="180" x2="180" transform="translate(60.5 60.5)" fill="none" stroke="#e0e0e0" stroke-width="24"/>
  </g>
</svg>